<svg width="343" height="54" viewBox="0 0 343 54" fill="none" xmlns="http://www.w3.org/2000/svg">
<path d="M0 16C0 8.45753 0 4.68629 2.34315 2.34315C4.68629 0 8.45753 0 16 0H327C334.542 0 338.314 0 340.657 2.34315C343 4.68629 343 8.45753 343 16V38C343 45.5425 343 49.3137 340.657 51.6569C338.314 54 334.542 54 327 54H1.99999C1.05719 54 0.585786 54 0.292893 53.7071C0 53.4142 0 52.9428 0 52V16Z" fill="#494949"/>
<path d="M27.7727 14.2727C27.7045 13.697 27.428 13.25 26.9432 12.9318C26.4583 12.6136 25.8636 12.4545 25.1591 12.4545C24.6439 12.4545 24.1932 12.5379 23.8068 12.7045C23.4242 12.8712 23.125 13.1004 22.9091 13.392C22.697 13.6837 22.5909 14.0152 22.5909 14.3864C22.5909 14.697 22.6648 14.964 22.8125 15.1875C22.964 15.4072 23.1572 15.5909 23.392 15.7386C23.6269 15.8826 23.8731 16.0019 24.1307 16.0966C24.3883 16.1875 24.625 16.2614 24.8409 16.3182L26.0227 16.6364C26.3258 16.7159 26.6629 16.8258 27.0341 16.9659C27.4091 17.1061 27.767 17.2973 28.108 17.5398C28.4527 17.7784 28.7367 18.0852 28.9602 18.4602C29.1837 18.8352 29.2955 19.2955 29.2955 19.8409C29.2955 20.4697 29.1307 21.0379 28.8011 21.5455C28.4754 22.053 27.9981 22.4564 27.3693 22.7557C26.7443 23.0549 25.9848 23.2045 25.0909 23.2045C24.2576 23.2045 23.536 23.0701 22.9261 22.8011C22.3201 22.5322 21.8428 22.1572 21.4943 21.6761C21.1496 21.1951 20.9545 20.6364 20.9091 20H22.3636C22.4015 20.4394 22.5492 20.803 22.8068 21.0909C23.0682 21.375 23.3977 21.5871 23.7955 21.7273C24.197 21.8636 24.6288 21.9318 25.0909 21.9318C25.6288 21.9318 26.1117 21.8447 26.5398 21.6705C26.9678 21.4924 27.3068 21.2462 27.5568 20.9318C27.8068 20.6136 27.9318 20.2424 27.9318 19.8182C27.9318 19.4318 27.8239 19.1174 27.608 18.875C27.392 18.6326 27.108 18.4356 26.7557 18.2841C26.4034 18.1326 26.0227 18 25.6136 17.8864L24.1818 17.4773C23.2727 17.2159 22.553 16.8428 22.0227 16.358C21.4924 15.8731 21.2273 15.2386 21.2273 14.4545C21.2273 13.803 21.4034 13.2348 21.7557 12.75C22.1117 12.2614 22.589 11.8826 23.1875 11.6136C23.7898 11.3409 24.4621 11.2045 25.2045 11.2045C25.9545 11.2045 26.6212 11.339 27.2045 11.608C27.7879 11.8731 28.25 12.2367 28.5909 12.6989C28.9356 13.161 29.1174 13.6856 29.1364 14.2727H27.7727ZM35.0895 23.1818C34.2486 23.1818 33.5232 22.9962 32.9134 22.625C32.3073 22.25 31.8395 21.7273 31.5099 21.0568C31.1842 20.3826 31.0213 19.5985 31.0213 18.7045C31.0213 17.8106 31.1842 17.0227 31.5099 16.3409C31.8395 15.6553 32.2978 15.1212 32.8849 14.7386C33.4759 14.3523 34.1652 14.1591 34.9531 14.1591C35.4077 14.1591 35.8565 14.2348 36.2997 14.3864C36.7429 14.5379 37.1463 14.7841 37.5099 15.125C37.8736 15.4621 38.1634 15.9091 38.3793 16.4659C38.5952 17.0227 38.7031 17.7083 38.7031 18.5227V19.0909H31.9759V17.9318H37.3395C37.3395 17.4394 37.241 17 37.044 16.6136C36.8509 16.2273 36.5743 15.9223 36.2145 15.6989C35.8584 15.4754 35.438 15.3636 34.9531 15.3636C34.419 15.3636 33.9569 15.4962 33.5668 15.7614C33.1804 16.0227 32.883 16.3636 32.6747 16.7841C32.4664 17.2045 32.3622 17.6553 32.3622 18.1364V18.9091C32.3622 19.5682 32.4759 20.1269 32.7031 20.5852C32.9342 21.0398 33.2543 21.3864 33.6634 21.625C34.0724 21.8598 34.5478 21.9773 35.0895 21.9773C35.4418 21.9773 35.7599 21.928 36.044 21.8295C36.3319 21.7273 36.58 21.5758 36.7884 21.375C36.9967 21.1705 37.1577 20.9167 37.2713 20.6136L38.5668 20.9773C38.4304 21.4167 38.2012 21.803 37.8793 22.1364C37.5573 22.4659 37.1596 22.7235 36.6861 22.9091C36.2126 23.0909 35.6804 23.1818 35.0895 23.1818ZM42.0838 17.75V23H40.7429V14.2727H42.0384V15.6364H42.152C42.3565 15.1932 42.6671 14.8371 43.0838 14.5682C43.5005 14.2955 44.0384 14.1591 44.6974 14.1591C45.2884 14.1591 45.8054 14.2803 46.2486 14.5227C46.6918 14.7614 47.0365 15.125 47.2827 15.6136C47.5289 16.0985 47.652 16.7121 47.652 17.4545V23H46.3111V17.5455C46.3111 16.8598 46.133 16.3258 45.777 15.9432C45.4209 15.5568 44.9323 15.3636 44.3111 15.3636C43.883 15.3636 43.5005 15.4564 43.1634 15.642C42.83 15.8277 42.5668 16.0985 42.3736 16.4545C42.1804 16.8106 42.0838 17.2424 42.0838 17.75ZM50.1023 23V14.2727H51.4432V23H50.1023ZM50.7841 12.8182C50.5227 12.8182 50.2973 12.7292 50.108 12.5511C49.9223 12.3731 49.8295 12.1591 49.8295 11.9091C49.8295 11.6591 49.9223 11.4451 50.108 11.267C50.2973 11.089 50.5227 11 50.7841 11C51.0455 11 51.2689 11.089 51.4545 11.267C51.6439 11.4451 51.7386 11.6591 51.7386 11.9091C51.7386 12.1591 51.6439 12.3731 51.4545 12.5511C51.2689 12.7292 51.0455 12.8182 50.7841 12.8182ZM57.4446 23.1818C56.6567 23.1818 55.9654 22.9943 55.3707 22.6193C54.7798 22.2443 54.3177 21.7197 53.9844 21.0455C53.6548 20.3712 53.4901 19.5833 53.4901 18.6818C53.4901 17.7727 53.6548 16.9792 53.9844 16.3011C54.3177 15.6231 54.7798 15.0966 55.3707 14.7216C55.9654 14.3466 56.6567 14.1591 57.4446 14.1591C58.2325 14.1591 58.9219 14.3466 59.5128 14.7216C60.1075 15.0966 60.5696 15.6231 60.8991 16.3011C61.2325 16.9792 61.3991 17.7727 61.3991 18.6818C61.3991 19.5833 61.2325 20.3712 60.8991 21.0455C60.5696 21.7197 60.1075 22.2443 59.5128 22.6193C58.9219 22.9943 58.2325 23.1818 57.4446 23.1818ZM57.4446 21.9773C58.0431 21.9773 58.5355 21.8239 58.9219 21.517C59.3082 21.2102 59.5942 20.8068 59.7798 20.3068C59.9654 19.8068 60.0582 19.2652 60.0582 18.6818C60.0582 18.0985 59.9654 17.5549 59.7798 17.0511C59.5942 16.5473 59.3082 16.1402 58.9219 15.8295C58.5355 15.5189 58.0431 15.3636 57.4446 15.3636C56.8461 15.3636 56.3537 15.5189 55.9673 15.8295C55.581 16.1402 55.295 16.5473 55.1094 17.0511C54.9238 17.5549 54.831 18.0985 54.831 18.6818C54.831 19.2652 54.9238 19.8068 55.1094 20.3068C55.295 20.8068 55.581 21.2102 55.9673 21.517C56.3537 21.8239 56.8461 21.9773 57.4446 21.9773ZM63.446 23V14.2727H64.7415V15.5909H64.8324C64.9915 15.1591 65.2794 14.8087 65.696 14.5398C66.1127 14.2708 66.5824 14.1364 67.1051 14.1364C67.2036 14.1364 67.3267 14.1383 67.4744 14.142C67.6222 14.1458 67.7339 14.1515 67.8097 14.1591V15.5227C67.7642 15.5114 67.66 15.4943 67.4972 15.4716C67.3381 15.4451 67.1695 15.4318 66.9915 15.4318C66.5672 15.4318 66.1884 15.5208 65.8551 15.6989C65.5256 15.8731 65.2642 16.1155 65.071 16.4261C64.8816 16.733 64.7869 17.0833 64.7869 17.4773V23H63.446ZM74.081 23V11.3636H78.0128C78.9257 11.3636 79.6719 11.5284 80.2514 11.858C80.8348 12.1837 81.2666 12.625 81.5469 13.1818C81.8272 13.7386 81.9673 14.3598 81.9673 15.0455C81.9673 15.7311 81.8272 16.3542 81.5469 16.9148C81.2704 17.4754 80.8423 17.9223 80.2628 18.2557C79.6832 18.5852 78.9408 18.75 78.0355 18.75H75.2173V17.5H77.9901C78.6151 17.5 79.117 17.392 79.4957 17.1761C79.8745 16.9602 80.1491 16.6686 80.3196 16.3011C80.4938 15.9299 80.581 15.5114 80.581 15.0455C80.581 14.5795 80.4938 14.1629 80.3196 13.7955C80.1491 13.428 79.8726 13.1402 79.4901 12.9318C79.1075 12.7197 78.5999 12.6136 77.9673 12.6136H75.4901V23H74.081ZM84.0554 23V14.2727H85.3509V15.5909H85.4418C85.6009 15.1591 85.8887 14.8087 86.3054 14.5398C86.7221 14.2708 87.1918 14.1364 87.7145 14.1364C87.813 14.1364 87.9361 14.1383 88.0838 14.142C88.2315 14.1458 88.3433 14.1515 88.419 14.1591V15.5227C88.3736 15.5114 88.2694 15.4943 88.1065 15.4716C87.9474 15.4451 87.7789 15.4318 87.6009 15.4318C87.1766 15.4318 86.7978 15.5208 86.4645 15.6989C86.1349 15.8731 85.8736 16.1155 85.6804 16.4261C85.491 16.733 85.3963 17.0833 85.3963 17.4773V23H84.0554ZM93.2884 23.1818C92.5005 23.1818 91.8092 22.9943 91.2145 22.6193C90.6236 22.2443 90.1615 21.7197 89.8281 21.0455C89.4986 20.3712 89.3338 19.5833 89.3338 18.6818C89.3338 17.7727 89.4986 16.9792 89.8281 16.3011C90.1615 15.6231 90.6236 15.0966 91.2145 14.7216C91.8092 14.3466 92.5005 14.1591 93.2884 14.1591C94.0762 14.1591 94.7656 14.3466 95.3565 14.7216C95.9512 15.0966 96.4134 15.6231 96.7429 16.3011C97.0762 16.9792 97.2429 17.7727 97.2429 18.6818C97.2429 19.5833 97.0762 20.3712 96.7429 21.0455C96.4134 21.7197 95.9512 22.2443 95.3565 22.6193C94.7656 22.9943 94.0762 23.1818 93.2884 23.1818ZM93.2884 21.9773C93.8868 21.9773 94.3793 21.8239 94.7656 21.517C95.152 21.2102 95.438 20.8068 95.6236 20.3068C95.8092 19.8068 95.902 19.2652 95.902 18.6818C95.902 18.0985 95.8092 17.5549 95.6236 17.0511C95.438 16.5473 95.152 16.1402 94.7656 15.8295C94.3793 15.5189 93.8868 15.3636 93.2884 15.3636C92.6899 15.3636 92.1974 15.5189 91.8111 15.8295C91.4247 16.1402 91.1387 16.5473 90.9531 17.0511C90.7675 17.5549 90.6747 18.0985 90.6747 18.6818C90.6747 19.2652 90.7675 19.8068 90.9531 20.3068C91.1387 20.8068 91.4247 21.2102 91.8111 21.517C92.1974 21.8239 92.6899 21.9773 93.2884 21.9773ZM102.585 23.1818C101.858 23.1818 101.216 22.9981 100.659 22.6307C100.102 22.2595 99.6667 21.7367 99.3523 21.0625C99.0379 20.3845 98.8807 19.5833 98.8807 18.6591C98.8807 17.7424 99.0379 16.947 99.3523 16.2727C99.6667 15.5985 100.104 15.0777 100.665 14.7102C101.225 14.3428 101.873 14.1591 102.608 14.1591C103.176 14.1591 103.625 14.2538 103.955 14.4432C104.288 14.6288 104.542 14.8409 104.716 15.0795C104.894 15.3144 105.032 15.5076 105.131 15.6591H105.244V11.3636H106.585V23H105.29V21.6591H105.131C105.032 21.8182 104.892 22.0189 104.71 22.2614C104.528 22.5 104.269 22.714 103.932 22.9034C103.595 23.089 103.146 23.1818 102.585 23.1818ZM102.767 21.9773C103.305 21.9773 103.759 21.8371 104.131 21.5568C104.502 21.2727 104.784 20.8807 104.977 20.3807C105.17 19.8769 105.267 19.2955 105.267 18.6364C105.267 17.9848 105.172 17.4148 104.983 16.9261C104.794 16.4337 104.513 16.0511 104.142 15.7784C103.771 15.5019 103.313 15.3636 102.767 15.3636C102.199 15.3636 101.725 15.5095 101.347 15.8011C100.972 16.089 100.689 16.4811 100.5 16.9773C100.314 17.4697 100.222 18.0227 100.222 18.6364C100.222 19.2576 100.316 19.822 100.506 20.3295C100.699 20.8333 100.983 21.2348 101.358 21.5341C101.737 21.8295 102.206 21.9773 102.767 21.9773ZM114.727 19.4318V14.2727H116.068V23H114.727V21.5227H114.636C114.432 21.9659 114.114 22.3428 113.682 22.6534C113.25 22.9602 112.705 23.1136 112.045 23.1136C111.5 23.1136 111.015 22.9943 110.591 22.7557C110.167 22.5133 109.833 22.1496 109.591 21.6648C109.348 21.1761 109.227 20.5606 109.227 19.8182V14.2727H110.568V19.7273C110.568 20.3636 110.746 20.8712 111.102 21.25C111.462 21.6288 111.92 21.8182 112.477 21.8182C112.811 21.8182 113.15 21.733 113.494 21.5625C113.843 21.392 114.134 21.1307 114.369 20.7784C114.608 20.4261 114.727 19.9773 114.727 19.4318ZM122.07 23.1818C121.251 23.1818 120.547 22.9886 119.956 22.6023C119.365 22.2159 118.911 21.6837 118.592 21.0057C118.274 20.3277 118.115 19.553 118.115 18.6818C118.115 17.7955 118.278 17.0133 118.604 16.3352C118.933 15.6534 119.392 15.1212 119.979 14.7386C120.57 14.3523 121.259 14.1591 122.047 14.1591C122.661 14.1591 123.214 14.2727 123.706 14.5C124.198 14.7273 124.602 15.0455 124.916 15.4545C125.231 15.8636 125.426 16.3409 125.501 16.8864H124.161C124.058 16.4886 123.831 16.1364 123.479 15.8295C123.13 15.5189 122.661 15.3636 122.07 15.3636C121.547 15.3636 121.089 15.5 120.695 15.7727C120.304 16.0417 120 16.4223 119.78 16.9148C119.564 17.4034 119.456 17.9773 119.456 18.6364C119.456 19.3106 119.562 19.8977 119.774 20.3977C119.99 20.8977 120.293 21.286 120.683 21.5625C121.077 21.839 121.539 21.9773 122.07 21.9773C122.418 21.9773 122.734 21.9167 123.018 21.7955C123.303 21.6742 123.543 21.5 123.74 21.2727C123.937 21.0455 124.077 20.7727 124.161 20.4545H125.501C125.426 20.9697 125.238 21.4337 124.939 21.8466C124.643 22.2557 124.251 22.5814 123.763 22.8239C123.278 23.0625 122.714 23.1818 122.07 23.1818ZM131.257 14.2727V15.4091H126.734V14.2727H131.257ZM128.053 12.1818H129.393V20.5C129.393 20.8788 129.448 21.1629 129.558 21.3523C129.672 21.5379 129.816 21.6629 129.99 21.7273C130.168 21.7879 130.356 21.8182 130.553 21.8182C130.7 21.8182 130.821 21.8106 130.916 21.7955C131.011 21.7765 131.087 21.7614 131.143 21.75L131.416 22.9545C131.325 22.9886 131.198 23.0227 131.036 23.0568C130.873 23.0947 130.666 23.1136 130.416 23.1136C130.037 23.1136 129.666 23.0322 129.303 22.8693C128.943 22.7064 128.643 22.4583 128.405 22.125C128.17 21.7917 128.053 21.3712 128.053 20.8636V12.1818ZM141.547 23H137.956V11.3636H141.706C142.835 11.3636 143.801 11.5966 144.604 12.0625C145.407 12.5246 146.022 13.1894 146.45 14.0568C146.878 14.9205 147.092 15.9545 147.092 17.1591C147.092 18.3712 146.876 19.4148 146.445 20.2898C146.013 21.161 145.384 21.8314 144.558 22.3011C143.732 22.767 142.729 23 141.547 23ZM139.365 21.75H141.456C142.418 21.75 143.215 21.5644 143.848 21.1932C144.481 20.822 144.952 20.2936 145.263 19.608C145.573 18.9223 145.729 18.1061 145.729 17.1591C145.729 16.2197 145.575 15.411 145.268 14.733C144.962 14.0511 144.503 13.5284 143.893 13.1648C143.284 12.7973 142.524 12.6136 141.615 12.6136H139.365V21.75ZM152.933 23.1818C152.092 23.1818 151.367 22.9962 150.757 22.625C150.151 22.25 149.683 21.7273 149.354 21.0568C149.028 20.3826 148.865 19.5985 148.865 18.7045C148.865 17.8106 149.028 17.0227 149.354 16.3409C149.683 15.6553 150.142 15.1212 150.729 14.7386C151.32 14.3523 152.009 14.1591 152.797 14.1591C153.251 14.1591 153.7 14.2348 154.143 14.3864C154.587 14.5379 154.99 14.7841 155.354 15.125C155.717 15.4621 156.007 15.9091 156.223 16.4659C156.439 17.0227 156.547 17.7083 156.547 18.5227V19.0909H149.82V17.9318H155.183C155.183 17.4394 155.085 17 154.888 16.6136C154.695 16.2273 154.418 15.9223 154.058 15.6989C153.702 15.4754 153.282 15.3636 152.797 15.3636C152.263 15.3636 151.801 15.4962 151.411 15.7614C151.024 16.0227 150.727 16.3636 150.518 16.7841C150.31 17.2045 150.206 17.6553 150.206 18.1364V18.9091C150.206 19.5682 150.32 20.1269 150.547 20.5852C150.778 21.0398 151.098 21.3864 151.507 21.625C151.916 21.8598 152.392 21.9773 152.933 21.9773C153.286 21.9773 153.604 21.928 153.888 21.8295C154.176 21.7273 154.424 21.5758 154.632 21.375C154.84 21.1705 155.001 20.9167 155.115 20.6136L156.411 20.9773C156.274 21.4167 156.045 21.803 155.723 22.1364C155.401 22.4659 155.003 22.7235 154.53 22.9091C154.056 23.0909 153.524 23.1818 152.933 23.1818ZM164.768 16.2273L163.564 16.5682C163.488 16.3674 163.376 16.1723 163.229 15.983C163.085 15.7898 162.888 15.6307 162.638 15.5057C162.388 15.3807 162.068 15.3182 161.678 15.3182C161.143 15.3182 160.698 15.4413 160.342 15.6875C159.99 15.9299 159.814 16.2386 159.814 16.6136C159.814 16.947 159.935 17.2102 160.178 17.4034C160.42 17.5966 160.799 17.7576 161.314 17.8864L162.609 18.2045C163.39 18.3939 163.971 18.6837 164.354 19.0739C164.736 19.4602 164.928 19.9583 164.928 20.5682C164.928 21.0682 164.784 21.5152 164.496 21.9091C164.212 22.303 163.814 22.6136 163.303 22.8409C162.791 23.0682 162.196 23.1818 161.518 23.1818C160.628 23.1818 159.892 22.9886 159.308 22.6023C158.725 22.2159 158.356 21.6515 158.2 20.9091L159.473 20.5909C159.594 21.0606 159.823 21.4129 160.161 21.6477C160.501 21.8826 160.946 22 161.496 22C162.121 22 162.617 21.8674 162.984 21.6023C163.356 21.3333 163.541 21.0114 163.541 20.6364C163.541 20.3333 163.435 20.0795 163.223 19.875C163.011 19.6667 162.685 19.5114 162.246 19.4091L160.791 19.0682C159.992 18.8788 159.405 18.5852 159.03 18.1875C158.659 17.786 158.473 17.2841 158.473 16.6818C158.473 16.1894 158.611 15.7538 158.888 15.375C159.168 14.9962 159.549 14.6989 160.03 14.483C160.515 14.267 161.064 14.1591 161.678 14.1591C162.541 14.1591 163.219 14.3485 163.712 14.7273C164.208 15.1061 164.56 15.6061 164.768 16.2273ZM166.946 23V14.2727H168.287V23H166.946ZM167.628 12.8182C167.366 12.8182 167.141 12.7292 166.952 12.5511C166.766 12.3731 166.673 12.1591 166.673 11.9091C166.673 11.6591 166.766 11.4451 166.952 11.267C167.141 11.089 167.366 11 167.628 11C167.889 11 168.113 11.089 168.298 11.267C168.488 11.4451 168.582 11.6591 168.582 11.9091C168.582 12.1591 168.488 12.3731 168.298 12.5511C168.113 12.7292 167.889 12.8182 167.628 12.8182ZM174.266 26.4545C173.618 26.4545 173.061 26.3712 172.595 26.2045C172.129 26.0417 171.741 25.8258 171.43 25.5568C171.124 25.2917 170.879 25.0076 170.697 24.7045L171.766 23.9545C171.887 24.1136 172.04 24.2955 172.226 24.5C172.411 24.7083 172.665 24.8883 172.987 25.0398C173.313 25.1951 173.739 25.2727 174.266 25.2727C174.97 25.2727 175.552 25.1023 176.01 24.7614C176.468 24.4205 176.697 23.8864 176.697 23.1591V21.3864H176.584C176.485 21.5455 176.345 21.7424 176.163 21.9773C175.985 22.2083 175.728 22.4148 175.391 22.5966C175.057 22.7746 174.607 22.8636 174.038 22.8636C173.334 22.8636 172.701 22.697 172.141 22.3636C171.584 22.0303 171.143 21.5455 170.817 20.9091C170.495 20.2727 170.334 19.5 170.334 18.5909C170.334 17.697 170.491 16.9186 170.805 16.2557C171.12 15.589 171.557 15.0739 172.118 14.7102C172.679 14.3428 173.326 14.1591 174.061 14.1591C174.629 14.1591 175.08 14.2538 175.413 14.4432C175.75 14.6288 176.008 14.8409 176.186 15.0795C176.368 15.3144 176.508 15.5076 176.607 15.6591H176.743V14.2727H178.038V23.25C178.038 24 177.868 24.6098 177.527 25.0795C177.19 25.553 176.735 25.8996 176.163 26.1193C175.595 26.3428 174.963 26.4545 174.266 26.4545ZM174.22 21.6591C174.758 21.6591 175.213 21.536 175.584 21.2898C175.955 21.0436 176.237 20.6894 176.43 20.2273C176.624 19.7652 176.72 19.2121 176.72 18.5682C176.72 17.9394 176.625 17.3845 176.436 16.9034C176.247 16.4223 175.966 16.0455 175.595 15.7727C175.224 15.5 174.766 15.3636 174.22 15.3636C173.652 15.3636 173.179 15.5076 172.8 15.7955C172.425 16.0833 172.143 16.4697 171.953 16.9545C171.768 17.4394 171.675 17.9773 171.675 18.5682C171.675 19.1742 171.769 19.7102 171.959 20.1761C172.152 20.6383 172.436 21.0019 172.811 21.267C173.19 21.5284 173.66 21.6591 174.22 21.6591ZM181.834 17.75V23H180.493V14.2727H181.788V15.6364H181.902C182.107 15.1932 182.417 14.8371 182.834 14.5682C183.25 14.2955 183.788 14.1591 184.447 14.1591C185.038 14.1591 185.555 14.2803 185.999 14.5227C186.442 14.7614 186.786 15.125 187.033 15.6136C187.279 16.0985 187.402 16.7121 187.402 17.4545V23H186.061V17.5455C186.061 16.8598 185.883 16.3258 185.527 15.9432C185.171 15.5568 184.682 15.3636 184.061 15.3636C183.633 15.3636 183.25 15.4564 182.913 15.642C182.58 15.8277 182.317 16.0985 182.124 16.4545C181.93 16.8106 181.834 17.2424 181.834 17.75ZM193.511 23.1818C192.67 23.1818 191.945 22.9962 191.335 22.625C190.729 22.25 190.261 21.7273 189.932 21.0568C189.606 20.3826 189.443 19.5985 189.443 18.7045C189.443 17.8106 189.606 17.0227 189.932 16.3409C190.261 15.6553 190.72 15.1212 191.307 14.7386C191.898 14.3523 192.587 14.1591 193.375 14.1591C193.83 14.1591 194.278 14.2348 194.722 14.3864C195.165 14.5379 195.568 14.7841 195.932 15.125C196.295 15.4621 196.585 15.9091 196.801 16.4659C197.017 17.0227 197.125 17.7083 197.125 18.5227V19.0909H190.398V17.9318H195.761C195.761 17.4394 195.663 17 195.466 16.6136C195.273 16.2273 194.996 15.9223 194.636 15.6989C194.28 15.4754 193.86 15.3636 193.375 15.3636C192.841 15.3636 192.379 15.4962 191.989 15.7614C191.602 16.0227 191.305 16.3636 191.097 16.7841C190.888 17.2045 190.784 17.6553 190.784 18.1364V18.9091C190.784 19.5682 190.898 20.1269 191.125 20.5852C191.356 21.0398 191.676 21.3864 192.085 21.625C192.494 21.8598 192.97 21.9773 193.511 21.9773C193.864 21.9773 194.182 21.928 194.466 21.8295C194.754 21.7273 195.002 21.5758 195.21 21.375C195.419 21.1705 195.58 20.9167 195.693 20.6136L196.989 20.9773C196.852 21.4167 196.623 21.803 196.301 22.1364C195.979 22.4659 195.581 22.7235 195.108 22.9091C194.634 23.0909 194.102 23.1818 193.511 23.1818ZM199.165 23V14.2727H200.46V15.5909H200.551C200.71 15.1591 200.998 14.8087 201.415 14.5398C201.831 14.2708 202.301 14.1364 202.824 14.1364C202.922 14.1364 203.045 14.1383 203.193 14.142C203.341 14.1458 203.453 14.1515 203.528 14.1591V15.5227C203.483 15.5114 203.379 15.4943 203.216 15.4716C203.057 15.4451 202.888 15.4318 202.71 15.4318C202.286 15.4318 201.907 15.5208 201.574 15.6989C201.244 15.8731 200.983 16.1155 200.79 16.4261C200.6 16.733 200.506 17.0833 200.506 17.4773V23H199.165ZM212.186 23.2045C211.633 23.2045 211.131 23.1004 210.68 22.892C210.23 22.6799 209.872 22.375 209.607 21.9773C209.341 21.5758 209.209 21.0909 209.209 20.5227C209.209 20.0227 209.307 19.6174 209.504 19.3068C209.701 18.9924 209.964 18.7462 210.294 18.5682C210.624 18.3902 210.987 18.2576 211.385 18.1705C211.786 18.0795 212.19 18.0076 212.595 17.9545C213.125 17.8864 213.555 17.8352 213.885 17.8011C214.218 17.7633 214.461 17.7008 214.612 17.6136C214.768 17.5265 214.845 17.375 214.845 17.1591V17.1136C214.845 16.553 214.692 16.1174 214.385 15.8068C214.082 15.4962 213.622 15.3409 213.004 15.3409C212.364 15.3409 211.862 15.4811 211.499 15.7614C211.135 16.0417 210.879 16.3409 210.732 16.6591L209.459 16.2045C209.686 15.6742 209.989 15.2614 210.368 14.9659C210.75 14.6667 211.167 14.4583 211.618 14.3409C212.072 14.2197 212.519 14.1591 212.959 14.1591C213.239 14.1591 213.561 14.1932 213.925 14.2614C214.292 14.3258 214.646 14.4602 214.987 14.6648C215.332 14.8693 215.618 15.178 215.845 15.5909C216.072 16.0038 216.186 16.5568 216.186 17.25V23H214.845V21.8182H214.777C214.686 22.0076 214.535 22.2102 214.322 22.4261C214.11 22.642 213.828 22.8258 213.476 22.9773C213.124 23.1288 212.694 23.2045 212.186 23.2045ZM212.391 22C212.921 22 213.368 21.8958 213.732 21.6875C214.099 21.4792 214.375 21.2102 214.561 20.8807C214.75 20.5511 214.845 20.2045 214.845 19.8409V18.6136C214.788 18.6818 214.663 18.7443 214.47 18.8011C214.281 18.8542 214.061 18.9015 213.811 18.9432C213.565 18.9811 213.324 19.0152 213.089 19.0455C212.858 19.072 212.671 19.0947 212.527 19.1136C212.179 19.1591 211.853 19.233 211.55 19.3352C211.25 19.4337 211.008 19.5833 210.822 19.7841C210.641 19.9811 210.55 20.25 210.55 20.5909C210.55 21.0568 210.722 21.4091 211.067 21.6477C211.415 21.8826 211.857 22 212.391 22ZM219.974 17.75V23H218.634V14.2727H219.929V15.6364H220.043C220.247 15.1932 220.558 14.8371 220.974 14.5682C221.391 14.2955 221.929 14.1591 222.588 14.1591C223.179 14.1591 223.696 14.2803 224.139 14.5227C224.582 14.7614 224.927 15.125 225.173 15.6136C225.42 16.0985 225.543 16.7121 225.543 17.4545V23H224.202V17.5455C224.202 16.8598 224.024 16.3258 223.668 15.9432C223.312 15.5568 222.823 15.3636 222.202 15.3636C221.774 15.3636 221.391 15.4564 221.054 15.642C220.721 15.8277 220.457 16.0985 220.264 16.4545C220.071 16.8106 219.974 17.2424 219.974 17.75ZM231.288 23.1818C230.561 23.1818 229.919 22.9981 229.362 22.6307C228.805 22.2595 228.37 21.7367 228.055 21.0625C227.741 20.3845 227.584 19.5833 227.584 18.6591C227.584 17.7424 227.741 16.947 228.055 16.2727C228.37 15.5985 228.807 15.0777 229.368 14.7102C229.929 14.3428 230.576 14.1591 231.311 14.1591C231.879 14.1591 232.328 14.2538 232.658 14.4432C232.991 14.6288 233.245 14.8409 233.419 15.0795C233.597 15.3144 233.735 15.5076 233.834 15.6591H233.947V11.3636H235.288V23H233.993V21.6591H233.834C233.735 21.8182 233.595 22.0189 233.413 22.2614C233.232 22.5 232.972 22.714 232.635 22.9034C232.298 23.089 231.849 23.1818 231.288 23.1818ZM231.47 21.9773C232.008 21.9773 232.463 21.8371 232.834 21.5568C233.205 21.2727 233.487 20.8807 233.68 20.3807C233.874 19.8769 233.97 19.2955 233.97 18.6364C233.97 17.9848 233.875 17.4148 233.686 16.9261C233.497 16.4337 233.216 16.0511 232.845 15.7784C232.474 15.5019 232.016 15.3636 231.47 15.3636C230.902 15.3636 230.429 15.5095 230.05 15.8011C229.675 16.089 229.393 16.4811 229.203 16.9773C229.018 17.4697 228.925 18.0227 228.925 18.6364C228.925 19.2576 229.019 19.822 229.209 20.3295C229.402 20.8333 229.686 21.2348 230.061 21.5341C230.44 21.8295 230.91 21.9773 231.47 21.9773ZM248.612 16.2273L247.408 16.5682C247.332 16.3674 247.22 16.1723 247.072 15.983C246.929 15.7898 246.732 15.6307 246.482 15.5057C246.232 15.3807 245.911 15.3182 245.521 15.3182C244.987 15.3182 244.542 15.4413 244.186 15.6875C243.834 15.9299 243.658 16.2386 243.658 16.6136C243.658 16.947 243.779 17.2102 244.021 17.4034C244.264 17.5966 244.643 17.7576 245.158 17.8864L246.453 18.2045C247.233 18.3939 247.815 18.6837 248.197 19.0739C248.58 19.4602 248.771 19.9583 248.771 20.5682C248.771 21.0682 248.627 21.5152 248.339 21.9091C248.055 22.303 247.658 22.6136 247.146 22.8409C246.635 23.0682 246.04 23.1818 245.362 23.1818C244.472 23.1818 243.735 22.9886 243.152 22.6023C242.569 22.2159 242.199 21.6515 242.044 20.9091L243.317 20.5909C243.438 21.0606 243.667 21.4129 244.004 21.6477C244.345 21.8826 244.79 22 245.339 22C245.964 22 246.461 21.8674 246.828 21.6023C247.199 21.3333 247.385 21.0114 247.385 20.6364C247.385 20.3333 247.279 20.0795 247.067 19.875C246.855 19.6667 246.529 19.5114 246.089 19.4091L244.635 19.0682C243.836 18.8788 243.249 18.5852 242.874 18.1875C242.502 17.786 242.317 17.2841 242.317 16.6818C242.317 16.1894 242.455 15.7538 242.732 15.375C243.012 14.9962 243.393 14.6989 243.874 14.483C244.358 14.267 244.908 14.1591 245.521 14.1591C246.385 14.1591 247.063 14.3485 247.555 14.7273C248.052 15.1061 248.404 15.6061 248.612 16.2273ZM252.04 19.8182L252.017 18.1591H252.29L256.108 14.2727H257.767L253.699 18.3864H253.585L252.04 19.8182ZM250.79 23V11.3636H252.131V23H250.79ZM256.335 23L252.926 18.6818L253.881 17.75L258.04 23H256.335ZM262.061 23.2045C261.508 23.2045 261.006 23.1004 260.555 22.892C260.105 22.6799 259.747 22.375 259.482 21.9773C259.216 21.5758 259.084 21.0909 259.084 20.5227C259.084 20.0227 259.182 19.6174 259.379 19.3068C259.576 18.9924 259.839 18.7462 260.169 18.5682C260.499 18.3902 260.862 18.2576 261.26 18.1705C261.661 18.0795 262.065 18.0076 262.47 17.9545C263 17.8864 263.43 17.8352 263.76 17.8011C264.093 17.7633 264.336 17.7008 264.487 17.6136C264.643 17.5265 264.72 17.375 264.72 17.1591V17.1136C264.72 16.553 264.567 16.1174 264.26 15.8068C263.957 15.4962 263.497 15.3409 262.879 15.3409C262.239 15.3409 261.737 15.4811 261.374 15.7614C261.01 16.0417 260.754 16.3409 260.607 16.6591L259.334 16.2045C259.561 15.6742 259.864 15.2614 260.243 14.9659C260.625 14.6667 261.042 14.4583 261.493 14.3409C261.947 14.2197 262.394 14.1591 262.834 14.1591C263.114 14.1591 263.436 14.1932 263.8 14.2614C264.167 14.3258 264.521 14.4602 264.862 14.6648C265.207 14.8693 265.493 15.178 265.72 15.5909C265.947 16.0038 266.061 16.5568 266.061 17.25V23H264.72V21.8182H264.652C264.561 22.0076 264.41 22.2102 264.197 22.4261C263.985 22.642 263.703 22.8258 263.351 22.9773C262.999 23.1288 262.569 23.2045 262.061 23.2045ZM262.266 22C262.796 22 263.243 21.8958 263.607 21.6875C263.974 21.4792 264.25 21.2102 264.436 20.8807C264.625 20.5511 264.72 20.2045 264.72 19.8409V18.6136C264.663 18.6818 264.538 18.7443 264.345 18.8011C264.156 18.8542 263.936 18.9015 263.686 18.9432C263.44 18.9811 263.199 19.0152 262.964 19.0455C262.733 19.072 262.546 19.0947 262.402 19.1136C262.054 19.1591 261.728 19.233 261.425 19.3352C261.125 19.4337 260.883 19.5833 260.697 19.7841C260.516 19.9811 260.425 20.25 260.425 20.5909C260.425 21.0568 260.597 21.4091 260.942 21.6477C261.29 21.8826 261.732 22 262.266 22ZM272.304 14.2727V15.4091H267.781V14.2727H272.304ZM269.099 12.1818H270.44V20.5C270.44 20.8788 270.495 21.1629 270.605 21.3523C270.719 21.5379 270.863 21.6629 271.037 21.7273C271.215 21.7879 271.402 21.8182 271.599 21.8182C271.747 21.8182 271.868 21.8106 271.963 21.7955C272.058 21.7765 272.134 21.7614 272.19 21.75L272.463 22.9545C272.372 22.9886 272.245 23.0227 272.082 23.0568C271.92 23.0947 271.713 23.1136 271.463 23.1136C271.084 23.1136 270.713 23.0322 270.349 22.8693C269.99 22.7064 269.69 22.4583 269.452 22.125C269.217 21.7917 269.099 21.3712 269.099 20.8636V12.1818ZM277.886 23.1818C277.045 23.1818 276.32 22.9962 275.71 22.625C275.104 22.25 274.636 21.7273 274.307 21.0568C273.981 20.3826 273.818 19.5985 273.818 18.7045C273.818 17.8106 273.981 17.0227 274.307 16.3409C274.636 15.6553 275.095 15.1212 275.682 14.7386C276.273 14.3523 276.962 14.1591 277.75 14.1591C278.205 14.1591 278.653 14.2348 279.097 14.3864C279.54 14.5379 279.943 14.7841 280.307 15.125C280.67 15.4621 280.96 15.9091 281.176 16.4659C281.392 17.0227 281.5 17.7083 281.5 18.5227V19.0909H274.773V17.9318H280.136C280.136 17.4394 280.038 17 279.841 16.6136C279.648 16.2273 279.371 15.9223 279.011 15.6989C278.655 15.4754 278.235 15.3636 277.75 15.3636C277.216 15.3636 276.754 15.4962 276.364 15.7614C275.977 16.0227 275.68 16.3636 275.472 16.7841C275.263 17.2045 275.159 17.6553 275.159 18.1364V18.9091C275.159 19.5682 275.273 20.1269 275.5 20.5852C275.731 21.0398 276.051 21.3864 276.46 21.625C276.869 21.8598 277.345 21.9773 277.886 21.9773C278.239 21.9773 278.557 21.928 278.841 21.8295C279.129 21.7273 279.377 21.5758 279.585 21.375C279.794 21.1705 279.955 20.9167 280.068 20.6136L281.364 20.9773C281.227 21.4167 280.998 21.803 280.676 22.1364C280.354 22.4659 279.956 22.7235 279.483 22.9091C279.009 23.0909 278.477 23.1818 277.886 23.1818ZM283.54 23V14.2727H284.835V15.5909H284.926C285.085 15.1591 285.373 14.8087 285.79 14.5398C286.206 14.2708 286.676 14.1364 287.199 14.1364C287.297 14.1364 287.42 14.1383 287.568 14.142C287.716 14.1458 287.828 14.1515 287.903 14.1591V15.5227C287.858 15.5114 287.754 15.4943 287.591 15.4716C287.432 15.4451 287.263 15.4318 287.085 15.4318C286.661 15.4318 286.282 15.5208 285.949 15.6989C285.619 15.8731 285.358 16.1155 285.165 16.4261C284.975 16.733 284.881 17.0833 284.881 17.4773V23H283.54ZM297.538 23.1818C296.75 23.1818 296.059 22.9943 295.464 22.6193C294.874 22.2443 294.411 21.7197 294.078 21.0455C293.749 20.3712 293.584 19.5833 293.584 18.6818C293.584 17.7727 293.749 16.9792 294.078 16.3011C294.411 15.6231 294.874 15.0966 295.464 14.7216C296.059 14.3466 296.75 14.1591 297.538 14.1591C298.326 14.1591 299.016 14.3466 299.607 14.7216C300.201 15.0966 300.663 15.6231 300.993 16.3011C301.326 16.9792 301.493 17.7727 301.493 18.6818C301.493 19.5833 301.326 20.3712 300.993 21.0455C300.663 21.7197 300.201 22.2443 299.607 22.6193C299.016 22.9943 298.326 23.1818 297.538 23.1818ZM297.538 21.9773C298.137 21.9773 298.629 21.8239 299.016 21.517C299.402 21.2102 299.688 20.8068 299.874 20.3068C300.059 19.8068 300.152 19.2652 300.152 18.6818C300.152 18.0985 300.059 17.5549 299.874 17.0511C299.688 16.5473 299.402 16.1402 299.016 15.8295C298.629 15.5189 298.137 15.3636 297.538 15.3636C296.94 15.3636 296.447 15.5189 296.061 15.8295C295.675 16.1402 295.389 16.5473 295.203 17.0511C295.018 17.5549 294.925 18.0985 294.925 18.6818C294.925 19.2652 295.018 19.8068 295.203 20.3068C295.389 20.8068 295.675 21.2102 296.061 21.517C296.447 21.8239 296.94 21.9773 297.538 21.9773ZM304.881 17.75V23H303.54V14.2727H304.835V15.6364H304.949C305.153 15.1932 305.464 14.8371 305.881 14.5682C306.297 14.2955 306.835 14.1591 307.494 14.1591C308.085 14.1591 308.602 14.2803 309.045 14.5227C309.489 14.7614 309.833 15.125 310.08 15.6136C310.326 16.0985 310.449 16.7121 310.449 17.4545V23H309.108V17.5455C309.108 16.8598 308.93 16.3258 308.574 15.9432C308.218 15.5568 307.729 15.3636 307.108 15.3636C306.68 15.3636 306.297 15.4564 305.96 15.642C305.627 15.8277 305.364 16.0985 305.17 16.4545C304.977 16.8106 304.881 17.2424 304.881 17.75ZM21.2273 42V33.2727H22.5227V34.6364H22.6364C22.8182 34.1705 23.1117 33.8087 23.517 33.5511C23.9223 33.2898 24.4091 33.1591 24.9773 33.1591C25.553 33.1591 26.0322 33.2898 26.4148 33.5511C26.8011 33.8087 27.1023 34.1705 27.3182 34.6364H27.4091C27.6326 34.1856 27.9678 33.8277 28.4148 33.5625C28.8617 33.2936 29.3977 33.1591 30.0227 33.1591C30.803 33.1591 31.4413 33.4034 31.9375 33.892C32.4337 34.3769 32.6818 35.1326 32.6818 36.1591V42H31.3409V36.1591C31.3409 35.5152 31.1648 35.0549 30.8125 34.7784C30.4602 34.5019 30.0455 34.3636 29.5682 34.3636C28.9545 34.3636 28.4792 34.5492 28.142 34.9205C27.8049 35.2879 27.6364 35.7538 27.6364 36.3182V42H26.2727V36.0227C26.2727 35.5265 26.1117 35.1269 25.7898 34.8239C25.4678 34.517 25.053 34.3636 24.5455 34.3636C24.197 34.3636 23.8712 34.4564 23.5682 34.642C23.2689 34.8277 23.0265 35.0852 22.8409 35.4148C22.6591 35.7405 22.5682 36.1174 22.5682 36.5455V42H21.2273ZM35.6847 45.2727C35.4574 45.2727 35.2547 45.2538 35.0767 45.2159C34.8987 45.1818 34.7756 45.1477 34.7074 45.1136L35.0483 43.9318C35.3741 44.0152 35.6619 44.0455 35.9119 44.0227C36.1619 44 36.3835 43.8883 36.5767 43.6875C36.7737 43.4905 36.9536 43.1705 37.1165 42.7273L37.3665 42.0455L34.1392 33.2727H35.5938L38.0028 40.2273H38.0938L40.5028 33.2727H41.9574L38.2528 43.2727C38.0862 43.7235 37.8797 44.0966 37.6335 44.392C37.3873 44.6913 37.1013 44.9129 36.7756 45.0568C36.4536 45.2008 36.09 45.2727 35.6847 45.2727ZM52.1136 33.2727V34.4091H47.4091V33.2727H52.1136ZM48.8182 42V32.0682C48.8182 31.5682 48.9356 31.1515 49.1705 30.8182C49.4053 30.4848 49.7102 30.2348 50.0852 30.0682C50.4602 29.9015 50.8561 29.8182 51.2727 29.8182C51.6023 29.8182 51.8712 29.8447 52.0795 29.8977C52.2879 29.9508 52.4432 30 52.5455 30.0455L52.1591 31.2045C52.0909 31.1818 51.9962 31.1534 51.875 31.1193C51.7576 31.0852 51.6023 31.0682 51.4091 31.0682C50.9659 31.0682 50.6458 31.1799 50.4489 31.4034C50.2557 31.6269 50.1591 31.9545 50.1591 32.3864V42H48.8182ZM53.9929 42V33.2727H55.2884V34.5909H55.3793C55.5384 34.1591 55.8262 33.8087 56.2429 33.5398C56.6596 33.2708 57.1293 33.1364 57.652 33.1364C57.7505 33.1364 57.8736 33.1383 58.0213 33.142C58.169 33.1458 58.2808 33.1515 58.3565 33.1591V34.5227C58.3111 34.5114 58.2069 34.4943 58.044 34.4716C57.8849 34.4451 57.7164 34.4318 57.5384 34.4318C57.1141 34.4318 56.7353 34.5208 56.402 34.6989C56.0724 34.8731 55.8111 35.1155 55.6179 35.4261C55.4285 35.733 55.3338 36.0833 55.3338 36.4773V42H53.9929ZM63.3395 42.1818C62.4986 42.1818 61.7732 41.9962 61.1634 41.625C60.5573 41.25 60.0895 40.7273 59.7599 40.0568C59.4342 39.3826 59.2713 38.5985 59.2713 37.7045C59.2713 36.8106 59.4342 36.0227 59.7599 35.3409C60.0895 34.6553 60.5478 34.1212 61.1349 33.7386C61.7259 33.3523 62.4152 33.1591 63.2031 33.1591C63.6577 33.1591 64.1065 33.2348 64.5497 33.3864C64.9929 33.5379 65.3963 33.7841 65.7599 34.125C66.1236 34.4621 66.4134 34.9091 66.6293 35.4659C66.8452 36.0227 66.9531 36.7083 66.9531 37.5227V38.0909H60.2259V36.9318H65.5895C65.5895 36.4394 65.491 36 65.294 35.6136C65.1009 35.2273 64.8243 34.9223 64.4645 34.6989C64.1084 34.4754 63.688 34.3636 63.2031 34.3636C62.669 34.3636 62.2069 34.4962 61.8168 34.7614C61.4304 35.0227 61.133 35.3636 60.9247 35.7841C60.7164 36.2045 60.6122 36.6553 60.6122 37.1364V37.9091C60.6122 38.5682 60.7259 39.1269 60.9531 39.5852C61.1842 40.0398 61.5043 40.3864 61.9134 40.625C62.3224 40.8598 62.7978 40.9773 63.3395 40.9773C63.6918 40.9773 64.0099 40.928 64.294 40.8295C64.5819 40.7273 64.83 40.5758 65.0384 40.375C65.2467 40.1705 65.4077 39.9167 65.5213 39.6136L66.8168 39.9773C66.6804 40.4167 66.4512 40.803 66.1293 41.1364C65.8073 41.4659 65.4096 41.7235 64.9361 41.9091C64.4626 42.0909 63.9304 42.1818 63.3395 42.1818ZM72.652 42.1818C71.8111 42.1818 71.0857 41.9962 70.4759 41.625C69.8698 41.25 69.402 40.7273 69.0724 40.0568C68.7467 39.3826 68.5838 38.5985 68.5838 37.7045C68.5838 36.8106 68.7467 36.0227 69.0724 35.3409C69.402 34.6553 69.8603 34.1212 70.4474 33.7386C71.0384 33.3523 71.7277 33.1591 72.5156 33.1591C72.9702 33.1591 73.419 33.2348 73.8622 33.3864C74.3054 33.5379 74.7088 33.7841 75.0724 34.125C75.4361 34.4621 75.7259 34.9091 75.9418 35.4659C76.1577 36.0227 76.2656 36.7083 76.2656 37.5227V38.0909H69.5384V36.9318H74.902C74.902 36.4394 74.8035 36 74.6065 35.6136C74.4134 35.2273 74.1368 34.9223 73.777 34.6989C73.4209 34.4754 73.0005 34.3636 72.5156 34.3636C71.9815 34.3636 71.5194 34.4962 71.1293 34.7614C70.7429 35.0227 70.4455 35.3636 70.2372 35.7841C70.0289 36.2045 69.9247 36.6553 69.9247 37.1364V37.9091C69.9247 38.5682 70.0384 39.1269 70.2656 39.5852C70.4967 40.0398 70.8168 40.3864 71.2259 40.625C71.6349 40.8598 72.1103 40.9773 72.652 40.9773C73.0043 40.9773 73.3224 40.928 73.6065 40.8295C73.8944 40.7273 74.1425 40.5758 74.3509 40.375C74.5592 40.1705 74.7202 39.9167 74.8338 39.6136L76.1293 39.9773C75.9929 40.4167 75.7637 40.803 75.4418 41.1364C75.1198 41.4659 74.7221 41.7235 74.2486 41.9091C73.7751 42.0909 73.2429 42.1818 72.652 42.1818ZM86.6009 33.2727V34.4091H82.0781V33.2727H86.6009ZM83.3963 31.1818H84.7372V39.5C84.7372 39.8788 84.7921 40.1629 84.902 40.3523C85.0156 40.5379 85.1596 40.6629 85.3338 40.7273C85.5118 40.7879 85.6993 40.8182 85.8963 40.8182C86.044 40.8182 86.1652 40.8106 86.2599 40.7955C86.3546 40.7765 86.4304 40.7614 86.4872 40.75L86.7599 41.9545C86.669 41.9886 86.5421 42.0227 86.3793 42.0568C86.2164 42.0947 86.0099 42.1136 85.7599 42.1136C85.3812 42.1136 85.0099 42.0322 84.6463 41.8693C84.2865 41.7064 83.9872 41.4583 83.7486 41.125C83.5137 40.7917 83.3963 40.3712 83.3963 39.8636V31.1818ZM88.6179 42V33.2727H89.9588V42H88.6179ZM89.2997 31.8182C89.0384 31.8182 88.813 31.7292 88.6236 31.5511C88.438 31.3731 88.3452 31.1591 88.3452 30.9091C88.3452 30.6591 88.438 30.4451 88.6236 30.267C88.813 30.089 89.0384 30 89.2997 30C89.5611 30 89.7846 30.089 89.9702 30.267C90.1596 30.4451 90.2543 30.6591 90.2543 30.9091C90.2543 31.1591 90.1596 31.3731 89.9702 31.5511C89.7846 31.7292 89.5611 31.8182 89.2997 31.8182ZM92.4148 42V33.2727H93.7102V34.6364H93.8239C94.0057 34.1705 94.2992 33.8087 94.7045 33.5511C95.1098 33.2898 95.5966 33.1591 96.1648 33.1591C96.7405 33.1591 97.2197 33.2898 97.6023 33.5511C97.9886 33.8087 98.2898 34.1705 98.5057 34.6364H98.5966C98.8201 34.1856 99.1553 33.8277 99.6023 33.5625C100.049 33.2936 100.585 33.1591 101.21 33.1591C101.991 33.1591 102.629 33.4034 103.125 33.892C103.621 34.3769 103.869 35.1326 103.869 36.1591V42H102.528V36.1591C102.528 35.5152 102.352 35.0549 102 34.7784C101.648 34.5019 101.233 34.3636 100.756 34.3636C100.142 34.3636 99.6667 34.5492 99.3295 34.9205C98.9924 35.2879 98.8239 35.7538 98.8239 36.3182V42H97.4602V36.0227C97.4602 35.5265 97.2992 35.1269 96.9773 34.8239C96.6553 34.517 96.2405 34.3636 95.733 34.3636C95.3845 34.3636 95.0587 34.4564 94.7557 34.642C94.4564 34.8277 94.214 35.0852 94.0284 35.4148C93.8466 35.7405 93.7557 36.1174 93.7557 36.5455V42H92.4148ZM109.98 42.1818C109.139 42.1818 108.414 41.9962 107.804 41.625C107.198 41.25 106.73 40.7273 106.401 40.0568C106.075 39.3826 105.912 38.5985 105.912 37.7045C105.912 36.8106 106.075 36.0227 106.401 35.3409C106.73 34.6553 107.188 34.1212 107.776 33.7386C108.366 33.3523 109.056 33.1591 109.844 33.1591C110.298 33.1591 110.747 33.2348 111.19 33.3864C111.634 33.5379 112.037 33.7841 112.401 34.125C112.764 34.4621 113.054 34.9091 113.27 35.4659C113.486 36.0227 113.594 36.7083 113.594 37.5227V38.0909H106.866V36.9318H112.23C112.23 36.4394 112.132 36 111.935 35.6136C111.741 35.2273 111.465 34.9223 111.105 34.6989C110.749 34.4754 110.329 34.3636 109.844 34.3636C109.31 34.3636 108.848 34.4962 108.457 34.7614C108.071 35.0227 107.774 35.3636 107.565 35.7841C107.357 36.2045 107.253 36.6553 107.253 37.1364V37.9091C107.253 38.5682 107.366 39.1269 107.594 39.5852C107.825 40.0398 108.145 40.3864 108.554 40.625C108.963 40.8598 109.438 40.9773 109.98 40.9773C110.332 40.9773 110.651 40.928 110.935 40.8295C111.223 40.7273 111.471 40.5758 111.679 40.375C111.887 40.1705 112.048 39.9167 112.162 39.6136L113.457 39.9773C113.321 40.4167 113.092 40.803 112.77 41.1364C112.448 41.4659 112.05 41.7235 111.577 41.9091C111.103 42.0909 110.571 42.1818 109.98 42.1818ZM116.611 42.0909C116.33 42.0909 116.09 41.9905 115.889 41.7898C115.688 41.589 115.588 41.3485 115.588 41.0682C115.588 40.7879 115.688 40.5473 115.889 40.3466C116.09 40.1458 116.33 40.0455 116.611 40.0455C116.891 40.0455 117.132 40.1458 117.332 40.3466C117.533 40.5473 117.634 40.7879 117.634 41.0682C117.634 41.2538 117.586 41.4242 117.491 41.5795C117.401 41.7348 117.277 41.8598 117.122 41.9545C116.971 42.0455 116.8 42.0909 116.611 42.0909Z" fill="white"/>
</svg>
