<svg width="343" height="54" viewBox="0 0 343 54" fill="none" xmlns="http://www.w3.org/2000/svg">
<path d="M0 16C0 8.45753 0 4.68629 2.34315 2.34315C4.68629 0 8.45753 0 16 0H327C334.542 0 338.314 0 340.657 2.34315C343 4.68629 343 8.45753 343 16V38C343 45.5425 343 49.3137 340.657 51.6569C338.314 54 334.542 54 327 54H1.99999C1.05719 54 0.585786 54 0.292893 53.7071C0 53.4142 0 52.9428 0 52V16Z" fill="#494949"/>
<path d="M22.8182 11.3636V23H21.4091V11.3636H22.8182ZM33.2571 23.1818C32.5298 23.1818 31.8878 22.9981 31.331 22.6307C30.7741 22.2595 30.3385 21.7367 30.0241 21.0625C29.7098 20.3845 29.5526 19.5833 29.5526 18.6591C29.5526 17.7424 29.7098 16.947 30.0241 16.2727C30.3385 15.5985 30.776 15.0777 31.3366 14.7102C31.8973 14.3428 32.545 14.1591 33.2798 14.1591C33.848 14.1591 34.2969 14.2538 34.6264 14.4432C34.9598 14.6288 35.2135 14.8409 35.3878 15.0795C35.5658 15.3144 35.7041 15.5076 35.8026 15.6591H35.9162V11.3636H37.2571V23H35.9616V21.6591H35.8026C35.7041 21.8182 35.5639 22.0189 35.3821 22.2614C35.2003 22.5 34.9408 22.714 34.6037 22.9034C34.2666 23.089 33.8177 23.1818 33.2571 23.1818ZM33.4389 21.9773C33.9768 21.9773 34.4313 21.8371 34.8026 21.5568C35.1738 21.2727 35.456 20.8807 35.6491 20.3807C35.8423 19.8769 35.9389 19.2955 35.9389 18.6364C35.9389 17.9848 35.8442 17.4148 35.6548 16.9261C35.4654 16.4337 35.1851 16.0511 34.8139 15.7784C34.4427 15.5019 33.9844 15.3636 33.4389 15.3636C32.8707 15.3636 32.3973 15.5095 32.0185 15.8011C31.6435 16.089 31.3613 16.4811 31.1719 16.9773C30.9863 17.4697 30.8935 18.0227 30.8935 18.6364C30.8935 19.2576 30.9882 19.822 31.1776 20.3295C31.3707 20.8333 31.6548 21.2348 32.0298 21.5341C32.4086 21.8295 32.8783 21.9773 33.4389 21.9773ZM43.5582 23.1818C42.7173 23.1818 41.992 22.9962 41.3821 22.625C40.776 22.25 40.3082 21.7273 39.9787 21.0568C39.6529 20.3826 39.4901 19.5985 39.4901 18.7045C39.4901 17.8106 39.6529 17.0227 39.9787 16.3409C40.3082 15.6553 40.7666 15.1212 41.3537 14.7386C41.9446 14.3523 42.634 14.1591 43.4219 14.1591C43.8764 14.1591 44.3253 14.2348 44.7685 14.3864C45.2116 14.5379 45.6151 14.7841 45.9787 15.125C46.3423 15.4621 46.6321 15.9091 46.848 16.4659C47.0639 17.0227 47.1719 17.7083 47.1719 18.5227V19.0909H40.4446V17.9318H45.8082C45.8082 17.4394 45.7098 17 45.5128 16.6136C45.3196 16.2273 45.0431 15.9223 44.6832 15.6989C44.3272 15.4754 43.9067 15.3636 43.4219 15.3636C42.8878 15.3636 42.4257 15.4962 42.0355 15.7614C41.6491 16.0227 41.3518 16.3636 41.1435 16.7841C40.9351 17.2045 40.831 17.6553 40.831 18.1364V18.9091C40.831 19.5682 40.9446 20.1269 41.1719 20.5852C41.4029 21.0398 41.723 21.3864 42.1321 21.625C42.5412 21.8598 43.0166 21.9773 43.5582 21.9773C43.9105 21.9773 44.2287 21.928 44.5128 21.8295C44.8007 21.7273 45.0488 21.5758 45.2571 21.375C45.4654 21.1705 45.6264 20.9167 45.7401 20.6136L47.0355 20.9773C46.8991 21.4167 46.67 21.803 46.348 22.1364C46.026 22.4659 45.6283 22.7235 45.1548 22.9091C44.6813 23.0909 44.1491 23.1818 43.5582 23.1818ZM55.3935 16.2273L54.1889 16.5682C54.1132 16.3674 54.0014 16.1723 53.8537 15.983C53.7098 15.7898 53.5128 15.6307 53.2628 15.5057C53.0128 15.3807 52.6927 15.3182 52.3026 15.3182C51.7685 15.3182 51.3234 15.4413 50.9673 15.6875C50.6151 15.9299 50.4389 16.2386 50.4389 16.6136C50.4389 16.947 50.5601 17.2102 50.8026 17.4034C51.045 17.5966 51.4238 17.7576 51.9389 17.8864L53.2344 18.2045C54.0147 18.3939 54.5961 18.6837 54.9787 19.0739C55.3613 19.4602 55.5526 19.9583 55.5526 20.5682C55.5526 21.0682 55.4086 21.5152 55.1207 21.9091C54.8366 22.303 54.4389 22.6136 53.9276 22.8409C53.4162 23.0682 52.8215 23.1818 52.1435 23.1818C51.2533 23.1818 50.5166 22.9886 49.9332 22.6023C49.3499 22.2159 48.9806 21.6515 48.8253 20.9091L50.098 20.5909C50.2192 21.0606 50.4484 21.4129 50.7855 21.6477C51.1264 21.8826 51.5715 22 52.1207 22C52.7457 22 53.242 21.8674 53.6094 21.6023C53.9806 21.3333 54.1662 21.0114 54.1662 20.6364C54.1662 20.3333 54.0601 20.0795 53.848 19.875C53.6359 19.6667 53.3101 19.5114 52.8707 19.4091L51.4162 19.0682C50.617 18.8788 50.0298 18.5852 49.6548 18.1875C49.2836 17.786 49.098 17.2841 49.098 16.6818C49.098 16.1894 49.2363 15.7538 49.5128 15.375C49.7931 14.9962 50.1738 14.6989 50.6548 14.483C51.1397 14.267 51.6889 14.1591 52.3026 14.1591C53.1662 14.1591 53.8442 14.3485 54.3366 14.7273C54.8329 15.1061 55.1851 15.6061 55.3935 16.2273ZM57.571 23V14.2727H58.9119V23H57.571ZM58.2528 12.8182C57.9915 12.8182 57.7661 12.7292 57.5767 12.5511C57.3911 12.3731 57.2983 12.1591 57.2983 11.9091C57.2983 11.6591 57.3911 11.4451 57.5767 11.267C57.7661 11.089 57.9915 11 58.2528 11C58.5142 11 58.7377 11.089 58.9233 11.267C59.1127 11.4451 59.2074 11.6591 59.2074 11.9091C59.2074 12.1591 59.1127 12.3731 58.9233 12.5511C58.7377 12.7292 58.5142 12.8182 58.2528 12.8182ZM64.8906 26.4545C64.2429 26.4545 63.6861 26.3712 63.2202 26.2045C62.7543 26.0417 62.366 25.8258 62.0554 25.5568C61.7486 25.2917 61.5043 25.0076 61.3224 24.7045L62.3906 23.9545C62.5118 24.1136 62.6652 24.2955 62.8509 24.5C63.0365 24.7083 63.2902 24.8883 63.6122 25.0398C63.938 25.1951 64.3641 25.2727 64.8906 25.2727C65.5952 25.2727 66.1766 25.1023 66.6349 24.7614C67.0933 24.4205 67.3224 23.8864 67.3224 23.1591V21.3864H67.2088C67.1103 21.5455 66.9702 21.7424 66.7884 21.9773C66.6103 22.2083 66.3527 22.4148 66.0156 22.5966C65.6823 22.7746 65.2315 22.8636 64.6634 22.8636C63.9588 22.8636 63.3262 22.697 62.7656 22.3636C62.2088 22.0303 61.7675 21.5455 61.4418 20.9091C61.1198 20.2727 60.9588 19.5 60.9588 18.5909C60.9588 17.697 61.116 16.9186 61.4304 16.2557C61.7448 15.589 62.1823 15.0739 62.7429 14.7102C63.3035 14.3428 63.9512 14.1591 64.6861 14.1591C65.2543 14.1591 65.705 14.2538 66.0384 14.4432C66.3755 14.6288 66.633 14.8409 66.8111 15.0795C66.9929 15.3144 67.133 15.5076 67.2315 15.6591H67.3679V14.2727H68.6634V23.25C68.6634 24 68.4929 24.6098 68.152 25.0795C67.8149 25.553 67.3603 25.8996 66.7884 26.1193C66.2202 26.3428 65.5876 26.4545 64.8906 26.4545ZM64.8452 21.6591C65.383 21.6591 65.8376 21.536 66.2088 21.2898C66.58 21.0436 66.8622 20.6894 67.0554 20.2273C67.2486 19.7652 67.3452 19.2121 67.3452 18.5682C67.3452 17.9394 67.2505 17.3845 67.0611 16.9034C66.8717 16.4223 66.5914 16.0455 66.2202 15.7727C65.849 15.5 65.3906 15.3636 64.8452 15.3636C64.277 15.3636 63.8035 15.5076 63.4247 15.7955C63.0497 16.0833 62.7675 16.4697 62.5781 16.9545C62.3925 17.4394 62.2997 17.9773 62.2997 18.5682C62.2997 19.1742 62.3944 19.7102 62.5838 20.1761C62.777 20.6383 63.0611 21.0019 63.4361 21.267C63.8149 21.5284 64.2846 21.6591 64.8452 21.6591ZM72.4588 17.75V23H71.1179V14.2727H72.4134V15.6364H72.527C72.7315 15.1932 73.0421 14.8371 73.4588 14.5682C73.8755 14.2955 74.4134 14.1591 75.0724 14.1591C75.6634 14.1591 76.1804 14.2803 76.6236 14.5227C77.0668 14.7614 77.4115 15.125 77.6577 15.6136C77.9039 16.0985 78.027 16.7121 78.027 17.4545V23H76.6861V17.5455C76.6861 16.8598 76.508 16.3258 76.152 15.9432C75.7959 15.5568 75.3073 15.3636 74.6861 15.3636C74.258 15.3636 73.8755 15.4564 73.5384 15.642C73.205 15.8277 72.9418 16.0985 72.7486 16.4545C72.5554 16.8106 72.4588 17.2424 72.4588 17.75ZM84.9773 26.2727V14.2727H86.2727V15.6591H86.4318C86.5303 15.5076 86.6667 15.3144 86.8409 15.0795C87.0189 14.8409 87.2727 14.6288 87.6023 14.4432C87.9356 14.2538 88.3864 14.1591 88.9545 14.1591C89.6894 14.1591 90.3371 14.3428 90.8977 14.7102C91.4583 15.0777 91.8958 15.5985 92.2102 16.2727C92.5246 16.947 92.6818 17.7424 92.6818 18.6591C92.6818 19.5833 92.5246 20.3845 92.2102 21.0625C91.8958 21.7367 91.4602 22.2595 90.9034 22.6307C90.3466 22.9981 89.7045 23.1818 88.9773 23.1818C88.4167 23.1818 87.9678 23.089 87.6307 22.9034C87.2936 22.714 87.0341 22.5 86.8523 22.2614C86.6705 22.0189 86.5303 21.8182 86.4318 21.6591H86.3182V26.2727H84.9773ZM86.2955 18.6364C86.2955 19.2955 86.392 19.8769 86.5852 20.3807C86.7784 20.8807 87.0606 21.2727 87.4318 21.5568C87.803 21.8371 88.2576 21.9773 88.7955 21.9773C89.3561 21.9773 89.8239 21.8295 90.1989 21.5341C90.5777 21.2348 90.8617 20.8333 91.0511 20.3295C91.2443 19.822 91.3409 19.2576 91.3409 18.6364C91.3409 18.0227 91.2462 17.4697 91.0568 16.9773C90.8712 16.4811 90.589 16.089 90.2102 15.8011C89.8352 15.5095 89.3636 15.3636 88.7955 15.3636C88.25 15.3636 87.7917 15.5019 87.4205 15.7784C87.0492 16.0511 86.7689 16.4337 86.5795 16.9261C86.3902 17.4148 86.2955 17.9848 86.2955 18.6364ZM94.7273 23V14.2727H96.0227V15.5909H96.1136C96.2727 15.1591 96.5606 14.8087 96.9773 14.5398C97.3939 14.2708 97.8636 14.1364 98.3864 14.1364C98.4848 14.1364 98.608 14.1383 98.7557 14.142C98.9034 14.1458 99.0152 14.1515 99.0909 14.1591V15.5227C99.0455 15.5114 98.9413 15.4943 98.7784 15.4716C98.6193 15.4451 98.4508 15.4318 98.2727 15.4318C97.8485 15.4318 97.4697 15.5208 97.1364 15.6989C96.8068 15.8731 96.5455 16.1155 96.3523 16.4261C96.1629 16.733 96.0682 17.0833 96.0682 17.4773V23H94.7273ZM103.96 23.1818C103.172 23.1818 102.481 22.9943 101.886 22.6193C101.295 22.2443 100.833 21.7197 100.5 21.0455C100.17 20.3712 100.006 19.5833 100.006 18.6818C100.006 17.7727 100.17 16.9792 100.5 16.3011C100.833 15.6231 101.295 15.0966 101.886 14.7216C102.481 14.3466 103.172 14.1591 103.96 14.1591C104.748 14.1591 105.438 14.3466 106.028 14.7216C106.623 15.0966 107.085 15.6231 107.415 16.3011C107.748 16.9792 107.915 17.7727 107.915 18.6818C107.915 19.5833 107.748 20.3712 107.415 21.0455C107.085 21.7197 106.623 22.2443 106.028 22.6193C105.438 22.9943 104.748 23.1818 103.96 23.1818ZM103.96 21.9773C104.559 21.9773 105.051 21.8239 105.438 21.517C105.824 21.2102 106.11 20.8068 106.295 20.3068C106.481 19.8068 106.574 19.2652 106.574 18.6818C106.574 18.0985 106.481 17.5549 106.295 17.0511C106.11 16.5473 105.824 16.1402 105.438 15.8295C105.051 15.5189 104.559 15.3636 103.96 15.3636C103.362 15.3636 102.869 15.5189 102.483 15.8295C102.097 16.1402 101.811 16.5473 101.625 17.0511C101.439 17.5549 101.347 18.0985 101.347 18.6818C101.347 19.2652 101.439 19.8068 101.625 20.3068C101.811 20.8068 102.097 21.2102 102.483 21.517C102.869 21.8239 103.362 21.9773 103.96 21.9773ZM113.257 23.1818C112.53 23.1818 111.888 22.9981 111.331 22.6307C110.774 22.2595 110.339 21.7367 110.024 21.0625C109.71 20.3845 109.553 19.5833 109.553 18.6591C109.553 17.7424 109.71 16.947 110.024 16.2727C110.339 15.5985 110.776 15.0777 111.337 14.7102C111.897 14.3428 112.545 14.1591 113.28 14.1591C113.848 14.1591 114.297 14.2538 114.626 14.4432C114.96 14.6288 115.214 14.8409 115.388 15.0795C115.566 15.3144 115.704 15.5076 115.803 15.6591H115.916V11.3636H117.257V23H115.962V21.6591H115.803C115.704 21.8182 115.564 22.0189 115.382 22.2614C115.2 22.5 114.941 22.714 114.604 22.9034C114.267 23.089 113.818 23.1818 113.257 23.1818ZM113.439 21.9773C113.977 21.9773 114.431 21.8371 114.803 21.5568C115.174 21.2727 115.456 20.8807 115.649 20.3807C115.842 19.8769 115.939 19.2955 115.939 18.6364C115.939 17.9848 115.844 17.4148 115.655 16.9261C115.465 16.4337 115.185 16.0511 114.814 15.7784C114.443 15.5019 113.984 15.3636 113.439 15.3636C112.871 15.3636 112.397 15.5095 112.018 15.8011C111.643 16.089 111.361 16.4811 111.172 16.9773C110.986 17.4697 110.893 18.0227 110.893 18.6364C110.893 19.2576 110.988 19.822 111.178 20.3295C111.371 20.8333 111.655 21.2348 112.03 21.5341C112.409 21.8295 112.878 21.9773 113.439 21.9773ZM125.399 19.4318V14.2727H126.74V23H125.399V21.5227H125.308C125.104 21.9659 124.786 22.3428 124.354 22.6534C123.922 22.9602 123.376 23.1136 122.717 23.1136C122.172 23.1136 121.687 22.9943 121.263 22.7557C120.839 22.5133 120.505 22.1496 120.263 21.6648C120.02 21.1761 119.899 20.5606 119.899 19.8182V14.2727H121.24V19.7273C121.24 20.3636 121.418 20.8712 121.774 21.25C122.134 21.6288 122.592 21.8182 123.149 21.8182C123.482 21.8182 123.821 21.733 124.166 21.5625C124.515 21.392 124.806 21.1307 125.041 20.7784C125.28 20.4261 125.399 19.9773 125.399 19.4318ZM132.741 23.1818C131.923 23.1818 131.219 22.9886 130.628 22.6023C130.037 22.2159 129.582 21.6837 129.264 21.0057C128.946 20.3277 128.787 19.553 128.787 18.6818C128.787 17.7955 128.95 17.0133 129.276 16.3352C129.605 15.6534 130.063 15.1212 130.651 14.7386C131.241 14.3523 131.931 14.1591 132.719 14.1591C133.332 14.1591 133.885 14.2727 134.378 14.5C134.87 14.7273 135.274 15.0455 135.588 15.4545C135.902 15.8636 136.098 16.3409 136.173 16.8864H134.832C134.73 16.4886 134.503 16.1364 134.151 15.8295C133.802 15.5189 133.332 15.3636 132.741 15.3636C132.219 15.3636 131.76 15.5 131.366 15.7727C130.976 16.0417 130.671 16.4223 130.452 16.9148C130.236 17.4034 130.128 17.9773 130.128 18.6364C130.128 19.3106 130.234 19.8977 130.446 20.3977C130.662 20.8977 130.965 21.286 131.355 21.5625C131.749 21.839 132.211 21.9773 132.741 21.9773C133.09 21.9773 133.406 21.9167 133.69 21.7955C133.974 21.6742 134.215 21.5 134.412 21.2727C134.609 21.0455 134.749 20.7727 134.832 20.4545H136.173C136.098 20.9697 135.91 21.4337 135.611 21.8466C135.315 22.2557 134.923 22.5814 134.435 22.8239C133.95 23.0625 133.385 23.1818 132.741 23.1818ZM141.929 14.2727V15.4091H137.406V14.2727H141.929ZM138.724 12.1818H140.065V20.5C140.065 20.8788 140.12 21.1629 140.23 21.3523C140.344 21.5379 140.488 21.6629 140.662 21.7273C140.84 21.7879 141.027 21.8182 141.224 21.8182C141.372 21.8182 141.493 21.8106 141.588 21.7955C141.683 21.7765 141.759 21.7614 141.815 21.75L142.088 22.9545C141.997 22.9886 141.87 23.0227 141.707 23.0568C141.545 23.0947 141.338 23.1136 141.088 23.1136C140.709 23.1136 140.338 23.0322 139.974 22.8693C139.615 22.7064 139.315 22.4583 139.077 22.125C138.842 21.7917 138.724 21.3712 138.724 20.8636V12.1818ZM149.972 16.2273L148.767 16.5682C148.691 16.3674 148.58 16.1723 148.432 15.983C148.288 15.7898 148.091 15.6307 147.841 15.5057C147.591 15.3807 147.271 15.3182 146.881 15.3182C146.347 15.3182 145.902 15.4413 145.545 15.6875C145.193 15.9299 145.017 16.2386 145.017 16.6136C145.017 16.947 145.138 17.2102 145.381 17.4034C145.623 17.5966 146.002 17.7576 146.517 17.8864L147.812 18.2045C148.593 18.3939 149.174 18.6837 149.557 19.0739C149.939 19.4602 150.131 19.9583 150.131 20.5682C150.131 21.0682 149.987 21.5152 149.699 21.9091C149.415 22.303 149.017 22.6136 148.506 22.8409C147.994 23.0682 147.4 23.1818 146.722 23.1818C145.831 23.1818 145.095 22.9886 144.511 22.6023C143.928 22.2159 143.559 21.6515 143.403 20.9091L144.676 20.5909C144.797 21.0606 145.027 21.4129 145.364 21.6477C145.705 21.8826 146.15 22 146.699 22C147.324 22 147.82 21.8674 148.188 21.6023C148.559 21.3333 148.744 21.0114 148.744 20.6364C148.744 20.3333 148.638 20.0795 148.426 19.875C148.214 19.6667 147.888 19.5114 147.449 19.4091L145.994 19.0682C145.195 18.8788 144.608 18.5852 144.233 18.1875C143.862 17.786 143.676 17.2841 143.676 16.6818C143.676 16.1894 143.814 15.7538 144.091 15.375C144.371 14.9962 144.752 14.6989 145.233 14.483C145.718 14.267 146.267 14.1591 146.881 14.1591C147.744 14.1591 148.422 14.3485 148.915 14.7273C149.411 15.1061 149.763 15.6061 149.972 16.2273ZM160.445 14.2727V15.4091H155.922V14.2727H160.445ZM157.24 12.1818H158.581V20.5C158.581 20.8788 158.636 21.1629 158.746 21.3523C158.859 21.5379 159.003 21.6629 159.178 21.7273C159.356 21.7879 159.543 21.8182 159.74 21.8182C159.888 21.8182 160.009 21.8106 160.104 21.7955C160.198 21.7765 160.274 21.7614 160.331 21.75L160.604 22.9545C160.513 22.9886 160.386 23.0227 160.223 23.0568C160.06 23.0947 159.854 23.1136 159.604 23.1136C159.225 23.1136 158.854 23.0322 158.49 22.8693C158.13 22.7064 157.831 22.4583 157.592 22.125C157.357 21.7917 157.24 21.3712 157.24 20.8636V12.1818ZM163.99 17.75V23H162.649V11.3636H163.99V15.6364H164.104C164.308 15.1856 164.615 14.8277 165.024 14.5625C165.437 14.2936 165.986 14.1591 166.672 14.1591C167.267 14.1591 167.787 14.2784 168.234 14.517C168.681 14.7519 169.028 15.1136 169.274 15.6023C169.524 16.0871 169.649 16.7045 169.649 17.4545V23H168.308V17.5455C168.308 16.8523 168.128 16.3163 167.768 15.9375C167.412 15.5549 166.918 15.3636 166.286 15.3636C165.846 15.3636 165.452 15.4564 165.104 15.642C164.759 15.8277 164.486 16.0985 164.286 16.4545C164.089 16.8106 163.99 17.2424 163.99 17.75ZM174.67 23.2045C174.117 23.2045 173.616 23.1004 173.165 22.892C172.714 22.6799 172.356 22.375 172.091 21.9773C171.826 21.5758 171.693 21.0909 171.693 20.5227C171.693 20.0227 171.792 19.6174 171.989 19.3068C172.186 18.9924 172.449 18.7462 172.778 18.5682C173.108 18.3902 173.472 18.2576 173.869 18.1705C174.271 18.0795 174.674 18.0076 175.08 17.9545C175.61 17.8864 176.04 17.8352 176.369 17.8011C176.703 17.7633 176.945 17.7008 177.097 17.6136C177.252 17.5265 177.33 17.375 177.33 17.1591V17.1136C177.33 16.553 177.176 16.1174 176.869 15.8068C176.566 15.4962 176.106 15.3409 175.489 15.3409C174.848 15.3409 174.347 15.4811 173.983 15.7614C173.619 16.0417 173.364 16.3409 173.216 16.6591L171.943 16.2045C172.17 15.6742 172.473 15.2614 172.852 14.9659C173.235 14.6667 173.652 14.4583 174.102 14.3409C174.557 14.2197 175.004 14.1591 175.443 14.1591C175.723 14.1591 176.045 14.1932 176.409 14.2614C176.777 14.3258 177.131 14.4602 177.472 14.6648C177.816 14.8693 178.102 15.178 178.33 15.5909C178.557 16.0038 178.67 16.5568 178.67 17.25V23H177.33V21.8182H177.261C177.17 22.0076 177.019 22.2102 176.807 22.4261C176.595 22.642 176.313 22.8258 175.96 22.9773C175.608 23.1288 175.178 23.2045 174.67 23.2045ZM174.875 22C175.405 22 175.852 21.8958 176.216 21.6875C176.583 21.4792 176.86 21.2102 177.045 20.8807C177.235 20.5511 177.33 20.2045 177.33 19.8409V18.6136C177.273 18.6818 177.148 18.7443 176.955 18.8011C176.765 18.8542 176.545 18.9015 176.295 18.9432C176.049 18.9811 175.809 19.0152 175.574 19.0455C175.343 19.072 175.155 19.0947 175.011 19.1136C174.663 19.1591 174.337 19.233 174.034 19.3352C173.735 19.4337 173.492 19.5833 173.307 19.7841C173.125 19.9811 173.034 20.25 173.034 20.5909C173.034 21.0568 173.206 21.4091 173.551 21.6477C173.9 21.8826 174.341 22 174.875 22ZM184.913 14.2727V15.4091H180.391V14.2727H184.913ZM181.709 12.1818H183.05V20.5C183.05 20.8788 183.105 21.1629 183.214 21.3523C183.328 21.5379 183.472 21.6629 183.646 21.7273C183.824 21.7879 184.012 21.8182 184.209 21.8182C184.357 21.8182 184.478 21.8106 184.572 21.7955C184.667 21.7765 184.743 21.7614 184.8 21.75L185.072 22.9545C184.982 22.9886 184.855 23.0227 184.692 23.0568C184.529 23.0947 184.322 23.1136 184.072 23.1136C183.694 23.1136 183.322 23.0322 182.959 22.8693C182.599 22.7064 182.3 22.4583 182.061 22.125C181.826 21.7917 181.709 21.3712 181.709 20.8636V12.1818ZM193.999 23.2045C193.446 23.2045 192.944 23.1004 192.493 22.892C192.042 22.6799 191.684 22.375 191.419 21.9773C191.154 21.5758 191.021 21.0909 191.021 20.5227C191.021 20.0227 191.12 19.6174 191.317 19.3068C191.514 18.9924 191.777 18.7462 192.107 18.5682C192.436 18.3902 192.8 18.2576 193.197 18.1705C193.599 18.0795 194.002 18.0076 194.408 17.9545C194.938 17.8864 195.368 17.8352 195.697 17.8011C196.031 17.7633 196.273 17.7008 196.425 17.6136C196.58 17.5265 196.658 17.375 196.658 17.1591V17.1136C196.658 16.553 196.504 16.1174 196.197 15.8068C195.894 15.4962 195.434 15.3409 194.817 15.3409C194.177 15.3409 193.675 15.4811 193.311 15.7614C192.947 16.0417 192.692 16.3409 192.544 16.6591L191.271 16.2045C191.499 15.6742 191.802 15.2614 192.18 14.9659C192.563 14.6667 192.98 14.4583 193.43 14.3409C193.885 14.2197 194.332 14.1591 194.771 14.1591C195.052 14.1591 195.374 14.1932 195.737 14.2614C196.105 14.3258 196.459 14.4602 196.8 14.6648C197.144 14.8693 197.43 15.178 197.658 15.5909C197.885 16.0038 197.999 16.5568 197.999 17.25V23H196.658V21.8182H196.589C196.499 22.0076 196.347 22.2102 196.135 22.4261C195.923 22.642 195.641 22.8258 195.288 22.9773C194.936 23.1288 194.506 23.2045 193.999 23.2045ZM194.203 22C194.733 22 195.18 21.8958 195.544 21.6875C195.911 21.4792 196.188 21.2102 196.374 20.8807C196.563 20.5511 196.658 20.2045 196.658 19.8409V18.6136C196.601 18.6818 196.476 18.7443 196.283 18.8011C196.093 18.8542 195.874 18.9015 195.624 18.9432C195.377 18.9811 195.137 19.0152 194.902 19.0455C194.671 19.072 194.483 19.0947 194.339 19.1136C193.991 19.1591 193.665 19.233 193.362 19.3352C193.063 19.4337 192.821 19.5833 192.635 19.7841C192.453 19.9811 192.362 20.25 192.362 20.5909C192.362 21.0568 192.535 21.4091 192.879 21.6477C193.228 21.8826 193.669 22 194.203 22ZM200.446 23V14.2727H201.741V15.5909H201.832C201.991 15.1591 202.279 14.8087 202.696 14.5398C203.113 14.2708 203.582 14.1364 204.105 14.1364C204.204 14.1364 204.327 14.1383 204.474 14.142C204.622 14.1458 204.734 14.1515 204.81 14.1591V15.5227C204.764 15.5114 204.66 15.4943 204.497 15.4716C204.338 15.4451 204.17 15.4318 203.991 15.4318C203.567 15.4318 203.188 15.5208 202.855 15.6989C202.526 15.8731 202.264 16.1155 202.071 16.4261C201.882 16.733 201.787 17.0833 201.787 17.4773V23H200.446ZM209.793 23.1818C208.952 23.1818 208.226 22.9962 207.616 22.625C207.01 22.25 206.543 21.7273 206.213 21.0568C205.887 20.3826 205.724 19.5985 205.724 18.7045C205.724 17.8106 205.887 17.0227 206.213 16.3409C206.543 15.6553 207.001 15.1212 207.588 14.7386C208.179 14.3523 208.868 14.1591 209.656 14.1591C210.111 14.1591 210.56 14.2348 211.003 14.3864C211.446 14.5379 211.849 14.7841 212.213 15.125C212.577 15.4621 212.866 15.9091 213.082 16.4659C213.298 17.0227 213.406 17.7083 213.406 18.5227V19.0909H206.679V17.9318H212.043C212.043 17.4394 211.944 17 211.747 16.6136C211.554 16.2273 211.277 15.9223 210.918 15.6989C210.562 15.4754 210.141 15.3636 209.656 15.3636C209.122 15.3636 208.66 15.4962 208.27 15.7614C207.884 16.0227 207.586 16.3636 207.378 16.7841C207.17 17.2045 207.065 17.6553 207.065 18.1364V18.9091C207.065 19.5682 207.179 20.1269 207.406 20.5852C207.637 21.0398 207.957 21.3864 208.366 21.625C208.776 21.8598 209.251 21.9773 209.793 21.9773C210.145 21.9773 210.463 21.928 210.747 21.8295C211.035 21.7273 211.283 21.5758 211.491 21.375C211.7 21.1705 211.861 20.9167 211.974 20.6136L213.27 20.9773C213.134 21.4167 212.904 21.803 212.582 22.1364C212.26 22.4659 211.863 22.7235 211.389 22.9091C210.916 23.0909 210.384 23.1818 209.793 23.1818ZM225.446 19.4318V14.2727H226.787V23H225.446V21.5227H225.355C225.151 21.9659 224.832 22.3428 224.401 22.6534C223.969 22.9602 223.423 23.1136 222.764 23.1136C222.219 23.1136 221.734 22.9943 221.31 22.7557C220.885 22.5133 220.552 22.1496 220.31 21.6648C220.067 21.1761 219.946 20.5606 219.946 19.8182V14.2727H221.287V19.7273C221.287 20.3636 221.465 20.8712 221.821 21.25C222.181 21.6288 222.639 21.8182 223.196 21.8182C223.529 21.8182 223.868 21.733 224.213 21.5625C224.562 21.392 224.853 21.1307 225.088 20.7784C225.327 20.4261 225.446 19.9773 225.446 19.4318ZM235.425 16.2273L234.22 16.5682C234.144 16.3674 234.033 16.1723 233.885 15.983C233.741 15.7898 233.544 15.6307 233.294 15.5057C233.044 15.3807 232.724 15.3182 232.334 15.3182C231.8 15.3182 231.355 15.4413 230.999 15.6875C230.646 15.9299 230.47 16.2386 230.47 16.6136C230.47 16.947 230.591 17.2102 230.834 17.4034C231.076 17.5966 231.455 17.7576 231.97 17.8864L233.266 18.2045C234.046 18.3939 234.627 18.6837 235.01 19.0739C235.393 19.4602 235.584 19.9583 235.584 20.5682C235.584 21.0682 235.44 21.5152 235.152 21.9091C234.868 22.303 234.47 22.6136 233.959 22.8409C233.447 23.0682 232.853 23.1818 232.175 23.1818C231.285 23.1818 230.548 22.9886 229.964 22.6023C229.381 22.2159 229.012 21.6515 228.857 20.9091L230.129 20.5909C230.25 21.0606 230.48 21.4129 230.817 21.6477C231.158 21.8826 231.603 22 232.152 22C232.777 22 233.273 21.8674 233.641 21.6023C234.012 21.3333 234.197 21.0114 234.197 20.6364C234.197 20.3333 234.091 20.0795 233.879 19.875C233.667 19.6667 233.341 19.5114 232.902 19.4091L231.447 19.0682C230.648 18.8788 230.061 18.5852 229.686 18.1875C229.315 17.786 229.129 17.2841 229.129 16.6818C229.129 16.1894 229.268 15.7538 229.544 15.375C229.824 14.9962 230.205 14.6989 230.686 14.483C231.171 14.267 231.72 14.1591 232.334 14.1591C233.197 14.1591 233.875 14.3485 234.368 14.7273C234.864 15.1061 235.216 15.6061 235.425 16.2273ZM241.261 23.1818C240.42 23.1818 239.695 22.9962 239.085 22.625C238.479 22.25 238.011 21.7273 237.682 21.0568C237.356 20.3826 237.193 19.5985 237.193 18.7045C237.193 17.8106 237.356 17.0227 237.682 16.3409C238.011 15.6553 238.47 15.1212 239.057 14.7386C239.648 14.3523 240.337 14.1591 241.125 14.1591C241.58 14.1591 242.028 14.2348 242.472 14.3864C242.915 14.5379 243.318 14.7841 243.682 15.125C244.045 15.4621 244.335 15.9091 244.551 16.4659C244.767 17.0227 244.875 17.7083 244.875 18.5227V19.0909H238.148V17.9318H243.511C243.511 17.4394 243.413 17 243.216 16.6136C243.023 16.2273 242.746 15.9223 242.386 15.6989C242.03 15.4754 241.61 15.3636 241.125 15.3636C240.591 15.3636 240.129 15.4962 239.739 15.7614C239.352 16.0227 239.055 16.3636 238.847 16.7841C238.638 17.2045 238.534 17.6553 238.534 18.1364V18.9091C238.534 19.5682 238.648 20.1269 238.875 20.5852C239.106 21.0398 239.426 21.3864 239.835 21.625C240.244 21.8598 240.72 21.9773 241.261 21.9773C241.614 21.9773 241.932 21.928 242.216 21.8295C242.504 21.7273 242.752 21.5758 242.96 21.375C243.169 21.1705 243.33 20.9167 243.443 20.6136L244.739 20.9773C244.602 21.4167 244.373 21.803 244.051 22.1364C243.729 22.4659 243.331 22.7235 242.858 22.9091C242.384 23.0909 241.852 23.1818 241.261 23.1818ZM246.915 23V14.2727H248.21V15.5909H248.301C248.46 15.1591 248.748 14.8087 249.165 14.5398C249.581 14.2708 250.051 14.1364 250.574 14.1364C250.672 14.1364 250.795 14.1383 250.943 14.142C251.091 14.1458 251.203 14.1515 251.278 14.1591V15.5227C251.233 15.5114 251.129 15.4943 250.966 15.4716C250.807 15.4451 250.638 15.4318 250.46 15.4318C250.036 15.4318 249.657 15.5208 249.324 15.6989C248.994 15.8731 248.733 16.1155 248.54 16.4261C248.35 16.733 248.256 17.0833 248.256 17.4773V23H246.915ZM257.227 17.3864V18.6364H252.136V17.3864H257.227ZM262.882 23.1818C262.155 23.1818 261.513 22.9981 260.956 22.6307C260.399 22.2595 259.964 21.7367 259.649 21.0625C259.335 20.3845 259.178 19.5833 259.178 18.6591C259.178 17.7424 259.335 16.947 259.649 16.2727C259.964 15.5985 260.401 15.0777 260.962 14.7102C261.522 14.3428 262.17 14.1591 262.905 14.1591C263.473 14.1591 263.922 14.2538 264.251 14.4432C264.585 14.6288 264.839 14.8409 265.013 15.0795C265.191 15.3144 265.329 15.5076 265.428 15.6591H265.541V11.3636H266.882V23H265.587V21.6591H265.428C265.329 21.8182 265.189 22.0189 265.007 22.2614C264.825 22.5 264.566 22.714 264.229 22.9034C263.892 23.089 263.443 23.1818 262.882 23.1818ZM263.064 21.9773C263.602 21.9773 264.056 21.8371 264.428 21.5568C264.799 21.2727 265.081 20.8807 265.274 20.3807C265.467 19.8769 265.564 19.2955 265.564 18.6364C265.564 17.9848 265.469 17.4148 265.28 16.9261C265.09 16.4337 264.81 16.0511 264.439 15.7784C264.068 15.5019 263.609 15.3636 263.064 15.3636C262.496 15.3636 262.022 15.5095 261.643 15.8011C261.268 16.089 260.986 16.4811 260.797 16.9773C260.611 17.4697 260.518 18.0227 260.518 18.6364C260.518 19.2576 260.613 19.822 260.803 20.3295C260.996 20.8333 261.28 21.2348 261.655 21.5341C262.034 21.8295 262.503 21.9773 263.064 21.9773ZM269.524 23V14.2727H270.82V15.5909H270.911C271.07 15.1591 271.357 14.8087 271.774 14.5398C272.191 14.2708 272.661 14.1364 273.183 14.1364C273.282 14.1364 273.405 14.1383 273.553 14.142C273.7 14.1458 273.812 14.1515 273.888 14.1591V15.5227C273.842 15.5114 273.738 15.4943 273.575 15.4716C273.416 15.4451 273.248 15.4318 273.07 15.4318C272.645 15.4318 272.267 15.5208 271.933 15.6989C271.604 15.8731 271.342 16.1155 271.149 16.4261C270.96 16.733 270.865 17.0833 270.865 17.4773V23H269.524ZM275.477 23V14.2727H276.818V23H275.477ZM276.159 12.8182C275.898 12.8182 275.672 12.7292 275.483 12.5511C275.297 12.3731 275.205 12.1591 275.205 11.9091C275.205 11.6591 275.297 11.4451 275.483 11.267C275.672 11.089 275.898 11 276.159 11C276.42 11 276.644 11.089 276.83 11.267C277.019 11.4451 277.114 11.6591 277.114 11.9091C277.114 12.1591 277.019 12.3731 276.83 12.5511C276.644 12.7292 276.42 12.8182 276.159 12.8182ZM286.411 14.2727L283.183 23H281.82L278.592 14.2727H280.047L282.456 21.2273H282.547L284.956 14.2727H286.411ZM291.527 23.1818C290.686 23.1818 289.961 22.9962 289.351 22.625C288.745 22.25 288.277 21.7273 287.947 21.0568C287.622 20.3826 287.459 19.5985 287.459 18.7045C287.459 17.8106 287.622 17.0227 287.947 16.3409C288.277 15.6553 288.735 15.1212 289.322 14.7386C289.913 14.3523 290.603 14.1591 291.391 14.1591C291.845 14.1591 292.294 14.2348 292.737 14.3864C293.18 14.5379 293.584 14.7841 293.947 15.125C294.311 15.4621 294.601 15.9091 294.817 16.4659C295.033 17.0227 295.141 17.7083 295.141 18.5227V19.0909H288.413V17.9318H293.777C293.777 17.4394 293.679 17 293.482 16.6136C293.288 16.2273 293.012 15.9223 292.652 15.6989C292.296 15.4754 291.875 15.3636 291.391 15.3636C290.857 15.3636 290.394 15.4962 290.004 15.7614C289.618 16.0227 289.321 16.3636 289.112 16.7841C288.904 17.2045 288.8 17.6553 288.8 18.1364V18.9091C288.8 19.5682 288.913 20.1269 289.141 20.5852C289.372 21.0398 289.692 21.3864 290.101 21.625C290.51 21.8598 290.985 21.9773 291.527 21.9773C291.879 21.9773 292.197 21.928 292.482 21.8295C292.769 21.7273 293.018 21.5758 293.226 21.375C293.434 21.1705 293.595 20.9167 293.709 20.6136L295.004 20.9773C294.868 21.4167 294.639 21.803 294.317 22.1364C293.995 22.4659 293.597 22.7235 293.124 22.9091C292.65 23.0909 292.118 23.1818 291.527 23.1818ZM298.521 17.75V23H297.18V14.2727H298.476V15.6364H298.589C298.794 15.1932 299.105 14.8371 299.521 14.5682C299.938 14.2955 300.476 14.1591 301.135 14.1591C301.726 14.1591 302.243 14.2803 302.686 14.5227C303.129 14.7614 303.474 15.125 303.72 15.6136C303.966 16.0985 304.089 16.7121 304.089 17.4545V23H302.749V17.5455C302.749 16.8598 302.571 16.3258 302.214 15.9432C301.858 15.5568 301.37 15.3636 300.749 15.3636C300.321 15.3636 299.938 15.4564 299.601 15.642C299.268 15.8277 299.004 16.0985 298.811 16.4545C298.618 16.8106 298.521 17.2424 298.521 17.75ZM23.7955 42.2045C23.2424 42.2045 22.7405 42.1004 22.2898 41.892C21.839 41.6799 21.4811 41.375 21.2159 40.9773C20.9508 40.5758 20.8182 40.0909 20.8182 39.5227C20.8182 39.0227 20.9167 38.6174 21.1136 38.3068C21.3106 37.9924 21.5739 37.7462 21.9034 37.5682C22.233 37.3902 22.5966 37.2576 22.9943 37.1705C23.3958 37.0795 23.7992 37.0076 24.2045 36.9545C24.7348 36.8864 25.1648 36.8352 25.4943 36.8011C25.8277 36.7633 26.0701 36.7008 26.2216 36.6136C26.3769 36.5265 26.4545 36.375 26.4545 36.1591V36.1136C26.4545 35.553 26.3011 35.1174 25.9943 34.8068C25.6913 34.4962 25.2311 34.3409 24.6136 34.3409C23.9735 34.3409 23.4716 34.4811 23.108 34.7614C22.7443 35.0417 22.4886 35.3409 22.3409 35.6591L21.0682 35.2045C21.2955 34.6742 21.5985 34.2614 21.9773 33.9659C22.3598 33.6667 22.7765 33.4583 23.2273 33.3409C23.6818 33.2197 24.1288 33.1591 24.5682 33.1591C24.8485 33.1591 25.1705 33.1932 25.5341 33.2614C25.9015 33.3258 26.2557 33.4602 26.5966 33.6648C26.9413 33.8693 27.2273 34.178 27.4545 34.5909C27.6818 35.0038 27.7955 35.5568 27.7955 36.25V42H26.4545V40.8182H26.3864C26.2955 41.0076 26.1439 41.2102 25.9318 41.4261C25.7197 41.642 25.4375 41.8258 25.0852 41.9773C24.733 42.1288 24.303 42.2045 23.7955 42.2045ZM24 41C24.5303 41 24.9773 40.8958 25.3409 40.6875C25.7083 40.4792 25.9848 40.2102 26.1705 39.8807C26.3598 39.5511 26.4545 39.2045 26.4545 38.8409V37.6136C26.3977 37.6818 26.2727 37.7443 26.0795 37.8011C25.8902 37.8542 25.6705 37.9015 25.4205 37.9432C25.1742 37.9811 24.9337 38.0152 24.6989 38.0455C24.4678 38.072 24.2803 38.0947 24.1364 38.1136C23.7879 38.1591 23.4621 38.233 23.1591 38.3352C22.8598 38.4337 22.6174 38.5833 22.4318 38.7841C22.25 38.9811 22.1591 39.25 22.1591 39.5909C22.1591 40.0568 22.3314 40.4091 22.6761 40.6477C23.0246 40.8826 23.4659 41 24 41ZM31.5838 36.75V42H30.2429V33.2727H31.5384V34.6364H31.652C31.8565 34.1932 32.1671 33.8371 32.5838 33.5682C33.0005 33.2955 33.5384 33.1591 34.1974 33.1591C34.7884 33.1591 35.3054 33.2803 35.7486 33.5227C36.1918 33.7614 36.5365 34.125 36.7827 34.6136C37.0289 35.0985 37.152 35.7121 37.152 36.4545V42H35.8111V36.5455C35.8111 35.8598 35.633 35.3258 35.277 34.9432C34.9209 34.5568 34.4323 34.3636 33.8111 34.3636C33.383 34.3636 33.0005 34.4564 32.6634 34.642C32.33 34.8277 32.0668 35.0985 31.8736 35.4545C31.6804 35.8106 31.5838 36.2424 31.5838 36.75ZM42.8977 42.1818C42.1705 42.1818 41.5284 41.9981 40.9716 41.6307C40.4148 41.2595 39.9792 40.7367 39.6648 40.0625C39.3504 39.3845 39.1932 38.5833 39.1932 37.6591C39.1932 36.7424 39.3504 35.947 39.6648 35.2727C39.9792 34.5985 40.4167 34.0777 40.9773 33.7102C41.5379 33.3428 42.1856 33.1591 42.9205 33.1591C43.4886 33.1591 43.9375 33.2538 44.267 33.4432C44.6004 33.6288 44.8542 33.8409 45.0284 34.0795C45.2064 34.3144 45.3447 34.5076 45.4432 34.6591H45.5568V30.3636H46.8977V42H45.6023V40.6591H45.4432C45.3447 40.8182 45.2045 41.0189 45.0227 41.2614C44.8409 41.5 44.5814 41.714 44.2443 41.9034C43.9072 42.089 43.4583 42.1818 42.8977 42.1818ZM43.0795 40.9773C43.6174 40.9773 44.072 40.8371 44.4432 40.5568C44.8144 40.2727 45.0966 39.8807 45.2898 39.3807C45.483 38.8769 45.5795 38.2955 45.5795 37.6364C45.5795 36.9848 45.4848 36.4148 45.2955 35.9261C45.1061 35.4337 44.8258 35.0511 44.4545 34.7784C44.0833 34.5019 43.625 34.3636 43.0795 34.3636C42.5114 34.3636 42.0379 34.5095 41.6591 34.8011C41.2841 35.089 41.0019 35.4811 40.8125 35.9773C40.6269 36.4697 40.5341 37.0227 40.5341 37.6364C40.5341 38.2576 40.6288 38.822 40.8182 39.3295C41.0114 39.8333 41.2955 40.2348 41.6705 40.5341C42.0492 40.8295 42.5189 40.9773 43.0795 40.9773ZM57.3352 42.1818C56.608 42.1818 55.9659 41.9981 55.4091 41.6307C54.8523 41.2595 54.4167 40.7367 54.1023 40.0625C53.7879 39.3845 53.6307 38.5833 53.6307 37.6591C53.6307 36.7424 53.7879 35.947 54.1023 35.2727C54.4167 34.5985 54.8542 34.0777 55.4148 33.7102C55.9754 33.3428 56.6231 33.1591 57.358 33.1591C57.9261 33.1591 58.375 33.2538 58.7045 33.4432C59.0379 33.6288 59.2917 33.8409 59.4659 34.0795C59.6439 34.3144 59.7822 34.5076 59.8807 34.6591H59.9943V30.3636H61.3352V42H60.0398V40.6591H59.8807C59.7822 40.8182 59.642 41.0189 59.4602 41.2614C59.2784 41.5 59.0189 41.714 58.6818 41.9034C58.3447 42.089 57.8958 42.1818 57.3352 42.1818ZM57.517 40.9773C58.0549 40.9773 58.5095 40.8371 58.8807 40.5568C59.2519 40.2727 59.5341 39.8807 59.7273 39.3807C59.9205 38.8769 60.017 38.2955 60.017 37.6364C60.017 36.9848 59.9223 36.4148 59.733 35.9261C59.5436 35.4337 59.2633 35.0511 58.892 34.7784C58.5208 34.5019 58.0625 34.3636 57.517 34.3636C56.9489 34.3636 56.4754 34.5095 56.0966 34.8011C55.7216 35.089 55.4394 35.4811 55.25 35.9773C55.0644 36.4697 54.9716 37.0227 54.9716 37.6364C54.9716 38.2576 55.0663 38.822 55.2557 39.3295C55.4489 39.8333 55.733 40.2348 56.108 40.5341C56.4867 40.8295 56.9564 40.9773 57.517 40.9773ZM67.6364 42.1818C66.7955 42.1818 66.0701 41.9962 65.4602 41.625C64.8542 41.25 64.3864 40.7273 64.0568 40.0568C63.7311 39.3826 63.5682 38.5985 63.5682 37.7045C63.5682 36.8106 63.7311 36.0227 64.0568 35.3409C64.3864 34.6553 64.8447 34.1212 65.4318 33.7386C66.0227 33.3523 66.7121 33.1591 67.5 33.1591C67.9545 33.1591 68.4034 33.2348 68.8466 33.3864C69.2898 33.5379 69.6932 33.7841 70.0568 34.125C70.4205 34.4621 70.7102 34.9091 70.9261 35.4659C71.142 36.0227 71.25 36.7083 71.25 37.5227V38.0909H64.5227V36.9318H69.8864C69.8864 36.4394 69.7879 36 69.5909 35.6136C69.3977 35.2273 69.1212 34.9223 68.7614 34.6989C68.4053 34.4754 67.9848 34.3636 67.5 34.3636C66.9659 34.3636 66.5038 34.4962 66.1136 34.7614C65.7273 35.0227 65.4299 35.3636 65.2216 35.7841C65.0133 36.2045 64.9091 36.6553 64.9091 37.1364V37.9091C64.9091 38.5682 65.0227 39.1269 65.25 39.5852C65.4811 40.0398 65.8011 40.3864 66.2102 40.625C66.6193 40.8598 67.0947 40.9773 67.6364 40.9773C67.9886 40.9773 68.3068 40.928 68.5909 40.8295C68.8788 40.7273 69.1269 40.5758 69.3352 40.375C69.5436 40.1705 69.7045 39.9167 69.8182 39.6136L71.1136 39.9773C70.9773 40.4167 70.7481 40.803 70.4261 41.1364C70.1042 41.4659 69.7064 41.7235 69.233 41.9091C68.7595 42.0909 68.2273 42.1818 67.6364 42.1818ZM74.6307 30.3636V42H73.2898V30.3636H74.6307ZM77.0866 42V33.2727H78.4276V42H77.0866ZM77.7685 31.8182C77.5071 31.8182 77.2817 31.7292 77.0923 31.5511C76.9067 31.3731 76.8139 31.1591 76.8139 30.9091C76.8139 30.6591 76.9067 30.4451 77.0923 30.267C77.2817 30.089 77.5071 30 77.7685 30C78.0298 30 78.2533 30.089 78.4389 30.267C78.6283 30.4451 78.723 30.6591 78.723 30.9091C78.723 31.1591 78.6283 31.3731 78.4389 31.5511C78.2533 31.7292 78.0298 31.8182 77.7685 31.8182ZM88.0199 33.2727L84.7926 42H83.429L80.2017 33.2727H81.6562L84.0653 40.2273H84.1562L86.5653 33.2727H88.0199ZM93.1364 42.1818C92.2955 42.1818 91.5701 41.9962 90.9602 41.625C90.3542 41.25 89.8864 40.7273 89.5568 40.0568C89.2311 39.3826 89.0682 38.5985 89.0682 37.7045C89.0682 36.8106 89.2311 36.0227 89.5568 35.3409C89.8864 34.6553 90.3447 34.1212 90.9318 33.7386C91.5227 33.3523 92.2121 33.1591 93 33.1591C93.4545 33.1591 93.9034 33.2348 94.3466 33.3864C94.7898 33.5379 95.1932 33.7841 95.5568 34.125C95.9205 34.4621 96.2102 34.9091 96.4261 35.4659C96.642 36.0227 96.75 36.7083 96.75 37.5227V38.0909H90.0227V36.9318H95.3864C95.3864 36.4394 95.2879 36 95.0909 35.6136C94.8977 35.2273 94.6212 34.9223 94.2614 34.6989C93.9053 34.4754 93.4848 34.3636 93 34.3636C92.4659 34.3636 92.0038 34.4962 91.6136 34.7614C91.2273 35.0227 90.9299 35.3636 90.7216 35.7841C90.5133 36.2045 90.4091 36.6553 90.4091 37.1364V37.9091C90.4091 38.5682 90.5227 39.1269 90.75 39.5852C90.9811 40.0398 91.3011 40.3864 91.7102 40.625C92.1193 40.8598 92.5947 40.9773 93.1364 40.9773C93.4886 40.9773 93.8068 40.928 94.0909 40.8295C94.3788 40.7273 94.6269 40.5758 94.8352 40.375C95.0436 40.1705 95.2045 39.9167 95.3182 39.6136L96.6136 39.9773C96.4773 40.4167 96.2481 40.803 95.9261 41.1364C95.6042 41.4659 95.2064 41.7235 94.733 41.9091C94.2595 42.0909 93.7273 42.1818 93.1364 42.1818ZM98.7898 42V33.2727H100.085V34.5909H100.176C100.335 34.1591 100.623 33.8087 101.04 33.5398C101.456 33.2708 101.926 33.1364 102.449 33.1364C102.547 33.1364 102.67 33.1383 102.818 33.142C102.966 33.1458 103.078 33.1515 103.153 33.1591V34.5227C103.108 34.5114 103.004 34.4943 102.841 34.4716C102.682 34.4451 102.513 34.4318 102.335 34.4318C101.911 34.4318 101.532 34.5208 101.199 34.6989C100.869 34.8731 100.608 35.1155 100.415 35.4261C100.225 35.733 100.131 36.0833 100.131 36.4773V42H98.7898ZM109.243 42V33.2727H110.538V34.5909H110.629C110.788 34.1591 111.076 33.8087 111.493 33.5398C111.91 33.2708 112.379 33.1364 112.902 33.1364C113 33.1364 113.124 33.1383 113.271 33.142C113.419 33.1458 113.531 33.1515 113.607 33.1591V34.5227C113.561 34.5114 113.457 34.4943 113.294 34.4716C113.135 34.4451 112.966 34.4318 112.788 34.4318C112.364 34.4318 111.985 34.5208 111.652 34.6989C111.322 34.8731 111.061 35.1155 110.868 35.4261C110.679 35.733 110.584 36.0833 110.584 36.4773V42H109.243ZM118.589 42.1818C117.749 42.1818 117.023 41.9962 116.413 41.625C115.807 41.25 115.339 40.7273 115.01 40.0568C114.684 39.3826 114.521 38.5985 114.521 37.7045C114.521 36.8106 114.684 36.0227 115.01 35.3409C115.339 34.6553 115.798 34.1212 116.385 33.7386C116.976 33.3523 117.665 33.1591 118.453 33.1591C118.908 33.1591 119.357 33.2348 119.8 33.3864C120.243 33.5379 120.646 33.7841 121.01 34.125C121.374 34.4621 121.663 34.9091 121.879 35.4659C122.095 36.0227 122.203 36.7083 122.203 37.5227V38.0909H115.476V36.9318H120.839C120.839 36.4394 120.741 36 120.544 35.6136C120.351 35.2273 120.074 34.9223 119.714 34.6989C119.358 34.4754 118.938 34.3636 118.453 34.3636C117.919 34.3636 117.457 34.4962 117.067 34.7614C116.68 35.0227 116.383 35.3636 116.175 35.7841C115.966 36.2045 115.862 36.6553 115.862 37.1364V37.9091C115.862 38.5682 115.976 39.1269 116.203 39.5852C116.434 40.0398 116.754 40.3864 117.163 40.625C117.572 40.8598 118.048 40.9773 118.589 40.9773C118.942 40.9773 119.26 40.928 119.544 40.8295C119.832 40.7273 120.08 40.5758 120.288 40.375C120.497 40.1705 120.658 39.9167 120.771 39.6136L122.067 39.9773C121.93 40.4167 121.701 40.803 121.379 41.1364C121.057 41.4659 120.66 41.7235 120.186 41.9091C119.713 42.0909 119.18 42.1818 118.589 42.1818ZM124.243 42V33.2727H125.538V34.6364H125.652C125.834 34.1705 126.127 33.8087 126.533 33.5511C126.938 33.2898 127.425 33.1591 127.993 33.1591C128.569 33.1591 129.048 33.2898 129.43 33.5511C129.817 33.8087 130.118 34.1705 130.334 34.6364H130.425C130.648 34.1856 130.983 33.8277 131.43 33.5625C131.877 33.2936 132.413 33.1591 133.038 33.1591C133.819 33.1591 134.457 33.4034 134.953 33.892C135.449 34.3769 135.697 35.1326 135.697 36.1591V42H134.357V36.1591C134.357 35.5152 134.18 35.0549 133.828 34.7784C133.476 34.5019 133.061 34.3636 132.584 34.3636C131.97 34.3636 131.495 34.5492 131.158 34.9205C130.821 35.2879 130.652 35.7538 130.652 36.3182V42H129.288V36.0227C129.288 35.5265 129.127 35.1269 128.805 34.8239C128.483 34.517 128.069 34.3636 127.561 34.3636C127.213 34.3636 126.887 34.4564 126.584 34.642C126.285 34.8277 126.042 35.0852 125.857 35.4148C125.675 35.7405 125.584 36.1174 125.584 36.5455V42H124.243ZM140.717 42.2045C140.164 42.2045 139.662 42.1004 139.212 41.892C138.761 41.6799 138.403 41.375 138.138 40.9773C137.873 40.5758 137.74 40.0909 137.74 39.5227C137.74 39.0227 137.839 38.6174 138.036 38.3068C138.232 37.9924 138.496 37.7462 138.825 37.5682C139.155 37.3902 139.518 37.2576 139.916 37.1705C140.318 37.0795 140.721 37.0076 141.126 36.9545C141.657 36.8864 142.087 36.8352 142.416 36.8011C142.75 36.7633 142.992 36.7008 143.143 36.6136C143.299 36.5265 143.376 36.375 143.376 36.1591V36.1136C143.376 35.553 143.223 35.1174 142.916 34.8068C142.613 34.4962 142.153 34.3409 141.536 34.3409C140.895 34.3409 140.393 34.4811 140.03 34.7614C139.666 35.0417 139.411 35.3409 139.263 35.6591L137.99 35.2045C138.217 34.6742 138.52 34.2614 138.899 33.9659C139.282 33.6667 139.698 33.4583 140.149 33.3409C140.604 33.2197 141.051 33.1591 141.49 33.1591C141.77 33.1591 142.092 33.1932 142.456 33.2614C142.823 33.3258 143.178 33.4602 143.518 33.6648C143.863 33.8693 144.149 34.178 144.376 34.5909C144.604 35.0038 144.717 35.5568 144.717 36.25V42H143.376V40.8182H143.308C143.217 41.0076 143.066 41.2102 142.854 41.4261C142.642 41.642 142.359 41.8258 142.007 41.9773C141.655 42.1288 141.225 42.2045 140.717 42.2045ZM140.922 41C141.452 41 141.899 40.8958 142.263 40.6875C142.63 40.4792 142.907 40.2102 143.092 39.8807C143.282 39.5511 143.376 39.2045 143.376 38.8409V37.6136C143.32 37.6818 143.195 37.7443 143.001 37.8011C142.812 37.8542 142.592 37.9015 142.342 37.9432C142.096 37.9811 141.856 38.0152 141.621 38.0455C141.39 38.072 141.202 38.0947 141.058 38.1136C140.71 38.1591 140.384 38.233 140.081 38.3352C139.782 38.4337 139.539 38.5833 139.354 38.7841C139.172 38.9811 139.081 39.25 139.081 39.5909C139.081 40.0568 139.253 40.4091 139.598 40.6477C139.946 40.8826 140.388 41 140.922 41ZM147.165 42V33.2727H148.46V34.5909H148.551C148.71 34.1591 148.998 33.8087 149.415 33.5398C149.831 33.2708 150.301 33.1364 150.824 33.1364C150.922 33.1364 151.045 33.1383 151.193 33.142C151.341 33.1458 151.453 33.1515 151.528 33.1591V34.5227C151.483 34.5114 151.379 34.4943 151.216 34.4716C151.057 34.4451 150.888 34.4318 150.71 34.4318C150.286 34.4318 149.907 34.5208 149.574 34.6989C149.244 34.8731 148.983 35.1155 148.79 35.4261C148.6 35.733 148.506 36.0833 148.506 36.4773V42H147.165ZM154.368 38.8182L154.345 37.1591H154.618L158.436 33.2727H160.095L156.027 37.3864H155.913L154.368 38.8182ZM153.118 42V30.3636H154.459V42H153.118ZM158.663 42L155.254 37.6818L156.209 36.75L160.368 42H158.663ZM164.389 42.2045C163.836 42.2045 163.334 42.1004 162.884 41.892C162.433 41.6799 162.075 41.375 161.81 40.9773C161.545 40.5758 161.412 40.0909 161.412 39.5227C161.412 39.0227 161.51 38.6174 161.707 38.3068C161.904 37.9924 162.168 37.7462 162.497 37.5682C162.827 37.3902 163.19 37.2576 163.588 37.1705C163.99 37.0795 164.393 37.0076 164.798 36.9545C165.329 36.8864 165.759 36.8352 166.088 36.8011C166.421 36.7633 166.664 36.7008 166.815 36.6136C166.971 36.5265 167.048 36.375 167.048 36.1591V36.1136C167.048 35.553 166.895 35.1174 166.588 34.8068C166.285 34.4962 165.825 34.3409 165.207 34.3409C164.567 34.3409 164.065 34.4811 163.702 34.7614C163.338 35.0417 163.082 35.3409 162.935 35.6591L161.662 35.2045C161.889 34.6742 162.192 34.2614 162.571 33.9659C162.954 33.6667 163.37 33.4583 163.821 33.3409C164.276 33.2197 164.723 33.1591 165.162 33.1591C165.442 33.1591 165.764 33.1932 166.128 33.2614C166.495 33.3258 166.849 33.4602 167.19 33.6648C167.535 33.8693 167.821 34.178 168.048 34.5909C168.276 35.0038 168.389 35.5568 168.389 36.25V42H167.048V40.8182H166.98C166.889 41.0076 166.738 41.2102 166.526 41.4261C166.313 41.642 166.031 41.8258 165.679 41.9773C165.327 42.1288 164.897 42.2045 164.389 42.2045ZM164.594 41C165.124 41 165.571 40.8958 165.935 40.6875C166.302 40.4792 166.579 40.2102 166.764 39.8807C166.954 39.5511 167.048 39.2045 167.048 38.8409V37.6136C166.991 37.6818 166.866 37.7443 166.673 37.8011C166.484 37.8542 166.264 37.9015 166.014 37.9432C165.768 37.9811 165.527 38.0152 165.293 38.0455C165.062 38.072 164.874 38.0947 164.73 38.1136C164.382 38.1591 164.056 38.233 163.753 38.3352C163.454 38.4337 163.211 38.5833 163.026 38.7841C162.844 38.9811 162.753 39.25 162.753 39.5909C162.753 40.0568 162.925 40.4091 163.27 40.6477C163.618 40.8826 164.06 41 164.594 41ZM171.018 42V30.3636H172.359V34.6591H172.473C172.571 34.5076 172.708 34.3144 172.882 34.0795C173.06 33.8409 173.314 33.6288 173.643 33.4432C173.977 33.2538 174.428 33.1591 174.996 33.1591C175.731 33.1591 176.378 33.3428 176.939 33.7102C177.5 34.0777 177.937 34.5985 178.251 35.2727C178.566 35.947 178.723 36.7424 178.723 37.6591C178.723 38.5833 178.566 39.3845 178.251 40.0625C177.937 40.7367 177.501 41.2595 176.945 41.6307C176.388 41.9981 175.746 42.1818 175.018 42.1818C174.458 42.1818 174.009 42.089 173.672 41.9034C173.335 41.714 173.075 41.5 172.893 41.2614C172.712 41.0189 172.571 40.8182 172.473 40.6591H172.314V42H171.018ZM172.337 37.6364C172.337 38.2955 172.433 38.8769 172.626 39.3807C172.82 39.8807 173.102 40.2727 173.473 40.5568C173.844 40.8371 174.299 40.9773 174.837 40.9773C175.397 40.9773 175.865 40.8295 176.24 40.5341C176.619 40.2348 176.903 39.8333 177.092 39.3295C177.286 38.822 177.382 38.2576 177.382 37.6364C177.382 37.0227 177.287 36.4697 177.098 35.9773C176.912 35.4811 176.63 35.089 176.251 34.8011C175.876 34.5095 175.405 34.3636 174.837 34.3636C174.291 34.3636 173.833 34.5019 173.462 34.7784C173.09 35.0511 172.81 35.4337 172.621 35.9261C172.431 36.4148 172.337 36.9848 172.337 37.6364ZM182.115 30.3636V42H180.774V30.3636H182.115ZM188.23 42.1818C187.389 42.1818 186.664 41.9962 186.054 41.625C185.448 41.25 184.98 40.7273 184.651 40.0568C184.325 39.3826 184.162 38.5985 184.162 37.7045C184.162 36.8106 184.325 36.0227 184.651 35.3409C184.98 34.6553 185.438 34.1212 186.026 33.7386C186.616 33.3523 187.306 33.1591 188.094 33.1591C188.548 33.1591 188.997 33.2348 189.44 33.3864C189.884 33.5379 190.287 33.7841 190.651 34.125C191.014 34.4621 191.304 34.9091 191.52 35.4659C191.736 36.0227 191.844 36.7083 191.844 37.5227V38.0909H185.116V36.9318H190.48C190.48 36.4394 190.382 36 190.185 35.6136C189.991 35.2273 189.715 34.9223 189.355 34.6989C188.999 34.4754 188.579 34.3636 188.094 34.3636C187.56 34.3636 187.098 34.4962 186.707 34.7614C186.321 35.0227 186.024 35.3636 185.815 35.7841C185.607 36.2045 185.503 36.6553 185.503 37.1364V37.9091C185.503 38.5682 185.616 39.1269 185.844 39.5852C186.075 40.0398 186.395 40.3864 186.804 40.625C187.213 40.8598 187.688 40.9773 188.23 40.9773C188.582 40.9773 188.901 40.928 189.185 40.8295C189.473 40.7273 189.721 40.5758 189.929 40.375C190.137 40.1705 190.298 39.9167 190.412 39.6136L191.707 39.9773C191.571 40.4167 191.342 40.803 191.02 41.1364C190.698 41.4659 190.3 41.7235 189.827 41.9091C189.353 42.0909 188.821 42.1818 188.23 42.1818ZM202.043 42.1818C201.202 42.1818 200.476 41.9962 199.866 41.625C199.26 41.25 198.793 40.7273 198.463 40.0568C198.137 39.3826 197.974 38.5985 197.974 37.7045C197.974 36.8106 198.137 36.0227 198.463 35.3409C198.793 34.6553 199.251 34.1212 199.838 33.7386C200.429 33.3523 201.118 33.1591 201.906 33.1591C202.361 33.1591 202.81 33.2348 203.253 33.3864C203.696 33.5379 204.099 33.7841 204.463 34.125C204.827 34.4621 205.116 34.9091 205.332 35.4659C205.548 36.0227 205.656 36.7083 205.656 37.5227V38.0909H198.929V36.9318H204.293C204.293 36.4394 204.194 36 203.997 35.6136C203.804 35.2273 203.527 34.9223 203.168 34.6989C202.812 34.4754 202.391 34.3636 201.906 34.3636C201.372 34.3636 200.91 34.4962 200.52 34.7614C200.134 35.0227 199.836 35.3636 199.628 35.7841C199.42 36.2045 199.315 36.6553 199.315 37.1364V37.9091C199.315 38.5682 199.429 39.1269 199.656 39.5852C199.887 40.0398 200.207 40.3864 200.616 40.625C201.026 40.8598 201.501 40.9773 202.043 40.9773C202.395 40.9773 202.713 40.928 202.997 40.8295C203.285 40.7273 203.533 40.5758 203.741 40.375C203.95 40.1705 204.111 39.9167 204.224 39.6136L205.52 39.9773C205.384 40.4167 205.154 40.803 204.832 41.1364C204.51 41.4659 204.113 41.7235 203.639 41.9091C203.166 42.0909 202.634 42.1818 202.043 42.1818ZM208.462 33.2727L210.553 36.8409L212.643 33.2727H214.189L211.371 37.6364L214.189 42H212.643L210.553 38.6136L208.462 42H206.916L209.689 37.6364L206.916 33.2727H208.462ZM216.102 45.2727V33.2727H217.398V34.6591H217.557C217.655 34.5076 217.792 34.3144 217.966 34.0795C218.144 33.8409 218.398 33.6288 218.727 33.4432C219.061 33.2538 219.511 33.1591 220.08 33.1591C220.814 33.1591 221.462 33.3428 222.023 33.7102C222.583 34.0777 223.021 34.5985 223.335 35.2727C223.65 35.947 223.807 36.7424 223.807 37.6591C223.807 38.5833 223.65 39.3845 223.335 40.0625C223.021 40.7367 222.585 41.2595 222.028 41.6307C221.472 41.9981 220.83 42.1818 220.102 42.1818C219.542 42.1818 219.093 42.089 218.756 41.9034C218.419 41.714 218.159 41.5 217.977 41.2614C217.795 41.0189 217.655 40.8182 217.557 40.6591H217.443V45.2727H216.102ZM217.42 37.6364C217.42 38.2955 217.517 38.8769 217.71 39.3807C217.903 39.8807 218.186 40.2727 218.557 40.5568C218.928 40.8371 219.383 40.9773 219.92 40.9773C220.481 40.9773 220.949 40.8295 221.324 40.5341C221.703 40.2348 221.987 39.8333 222.176 39.3295C222.369 38.822 222.466 38.2576 222.466 37.6364C222.466 37.0227 222.371 36.4697 222.182 35.9773C221.996 35.4811 221.714 35.089 221.335 34.8011C220.96 34.5095 220.489 34.3636 219.92 34.3636C219.375 34.3636 218.917 34.5019 218.545 34.7784C218.174 35.0511 217.894 35.4337 217.705 35.9261C217.515 36.4148 217.42 36.9848 217.42 37.6364ZM229.511 42.1818C228.67 42.1818 227.945 41.9962 227.335 41.625C226.729 41.25 226.261 40.7273 225.932 40.0568C225.606 39.3826 225.443 38.5985 225.443 37.7045C225.443 36.8106 225.606 36.0227 225.932 35.3409C226.261 34.6553 226.72 34.1212 227.307 33.7386C227.898 33.3523 228.587 33.1591 229.375 33.1591C229.83 33.1591 230.278 33.2348 230.722 33.3864C231.165 33.5379 231.568 33.7841 231.932 34.125C232.295 34.4621 232.585 34.9091 232.801 35.4659C233.017 36.0227 233.125 36.7083 233.125 37.5227V38.0909H226.398V36.9318H231.761C231.761 36.4394 231.663 36 231.466 35.6136C231.273 35.2273 230.996 34.9223 230.636 34.6989C230.28 34.4754 229.86 34.3636 229.375 34.3636C228.841 34.3636 228.379 34.4962 227.989 34.7614C227.602 35.0227 227.305 35.3636 227.097 35.7841C226.888 36.2045 226.784 36.6553 226.784 37.1364V37.9091C226.784 38.5682 226.898 39.1269 227.125 39.5852C227.356 40.0398 227.676 40.3864 228.085 40.625C228.494 40.8598 228.97 40.9773 229.511 40.9773C229.864 40.9773 230.182 40.928 230.466 40.8295C230.754 40.7273 231.002 40.5758 231.21 40.375C231.419 40.1705 231.58 39.9167 231.693 39.6136L232.989 39.9773C232.852 40.4167 232.623 40.803 232.301 41.1364C231.979 41.4659 231.581 41.7235 231.108 41.9091C230.634 42.0909 230.102 42.1818 229.511 42.1818ZM235.165 42V33.2727H236.46V34.5909H236.551C236.71 34.1591 236.998 33.8087 237.415 33.5398C237.831 33.2708 238.301 33.1364 238.824 33.1364C238.922 33.1364 239.045 33.1383 239.193 33.142C239.341 33.1458 239.453 33.1515 239.528 33.1591V34.5227C239.483 34.5114 239.379 34.4943 239.216 34.4716C239.057 34.4451 238.888 34.4318 238.71 34.4318C238.286 34.4318 237.907 34.5208 237.574 34.6989C237.244 34.8731 236.983 35.1155 236.79 35.4261C236.6 35.733 236.506 36.0833 236.506 36.4773V42H235.165ZM241.118 42V33.2727H242.459V42H241.118ZM241.8 31.8182C241.538 31.8182 241.313 31.7292 241.124 31.5511C240.938 31.3731 240.845 31.1591 240.845 30.9091C240.845 30.6591 240.938 30.4451 241.124 30.267C241.313 30.089 241.538 30 241.8 30C242.061 30 242.285 30.089 242.47 30.267C242.66 30.4451 242.754 30.6591 242.754 30.9091C242.754 31.1591 242.66 31.3731 242.47 31.5511C242.285 31.7292 242.061 31.8182 241.8 31.8182ZM248.574 42.1818C247.733 42.1818 247.008 41.9962 246.398 41.625C245.792 41.25 245.324 40.7273 244.994 40.0568C244.669 39.3826 244.506 38.5985 244.506 37.7045C244.506 36.8106 244.669 36.0227 244.994 35.3409C245.324 34.6553 245.782 34.1212 246.369 33.7386C246.96 33.3523 247.65 33.1591 248.438 33.1591C248.892 33.1591 249.341 33.2348 249.784 33.3864C250.227 33.5379 250.631 33.7841 250.994 34.125C251.358 34.4621 251.648 34.9091 251.864 35.4659C252.08 36.0227 252.188 36.7083 252.188 37.5227V38.0909H245.46V36.9318H250.824C250.824 36.4394 250.725 36 250.528 35.6136C250.335 35.2273 250.059 34.9223 249.699 34.6989C249.343 34.4754 248.922 34.3636 248.438 34.3636C247.903 34.3636 247.441 34.4962 247.051 34.7614C246.665 35.0227 246.367 35.3636 246.159 35.7841C245.951 36.2045 245.847 36.6553 245.847 37.1364V37.9091C245.847 38.5682 245.96 39.1269 246.188 39.5852C246.419 40.0398 246.739 40.3864 247.148 40.625C247.557 40.8598 248.032 40.9773 248.574 40.9773C248.926 40.9773 249.244 40.928 249.528 40.8295C249.816 40.7273 250.064 40.5758 250.273 40.375C250.481 40.1705 250.642 39.9167 250.756 39.6136L252.051 39.9773C251.915 40.4167 251.686 40.803 251.364 41.1364C251.042 41.4659 250.644 41.7235 250.17 41.9091C249.697 42.0909 249.165 42.1818 248.574 42.1818ZM255.568 36.75V42H254.227V33.2727H255.523V34.6364H255.636C255.841 34.1932 256.152 33.8371 256.568 33.5682C256.985 33.2955 257.523 33.1591 258.182 33.1591C258.773 33.1591 259.29 33.2803 259.733 33.5227C260.176 33.7614 260.521 34.125 260.767 34.6136C261.013 35.0985 261.136 35.7121 261.136 36.4545V42H259.795V36.5455C259.795 35.8598 259.617 35.3258 259.261 34.9432C258.905 34.5568 258.417 34.3636 257.795 34.3636C257.367 34.3636 256.985 34.4564 256.648 34.642C256.314 34.8277 256.051 35.0985 255.858 35.4545C255.665 35.8106 255.568 36.2424 255.568 36.75ZM267.132 42.1818C266.314 42.1818 265.609 41.9886 265.018 41.6023C264.428 41.2159 263.973 40.6837 263.655 40.0057C263.337 39.3277 263.178 38.553 263.178 37.6818C263.178 36.7955 263.34 36.0133 263.666 35.3352C263.996 34.6534 264.454 34.1212 265.041 33.7386C265.632 33.3523 266.321 33.1591 267.109 33.1591C267.723 33.1591 268.276 33.2727 268.768 33.5C269.261 33.7273 269.664 34.0455 269.979 34.4545C270.293 34.8636 270.488 35.3409 270.564 35.8864H269.223C269.121 35.4886 268.893 35.1364 268.541 34.8295C268.193 34.5189 267.723 34.3636 267.132 34.3636C266.609 34.3636 266.151 34.5 265.757 34.7727C265.367 35.0417 265.062 35.4223 264.842 35.9148C264.626 36.4034 264.518 36.9773 264.518 37.6364C264.518 38.3106 264.625 38.8977 264.837 39.3977C265.053 39.8977 265.356 40.286 265.746 40.5625C266.14 40.839 266.602 40.9773 267.132 40.9773C267.481 40.9773 267.797 40.9167 268.081 40.7955C268.365 40.6742 268.606 40.5 268.803 40.2727C269 40.0455 269.14 39.7727 269.223 39.4545H270.564C270.488 39.9697 270.301 40.4337 270.001 40.8466C269.706 41.2557 269.314 41.5814 268.825 41.8239C268.34 42.0625 267.776 42.1818 267.132 42.1818ZM276.183 42.1818C275.342 42.1818 274.617 41.9962 274.007 41.625C273.401 41.25 272.933 40.7273 272.604 40.0568C272.278 39.3826 272.115 38.5985 272.115 37.7045C272.115 36.8106 272.278 36.0227 272.604 35.3409C272.933 34.6553 273.392 34.1212 273.979 33.7386C274.57 33.3523 275.259 33.1591 276.047 33.1591C276.501 33.1591 276.95 33.2348 277.393 33.3864C277.837 33.5379 278.24 33.7841 278.604 34.125C278.967 34.4621 279.257 34.9091 279.473 35.4659C279.689 36.0227 279.797 36.7083 279.797 37.5227V38.0909H273.07V36.9318H278.433C278.433 36.4394 278.335 36 278.138 35.6136C277.945 35.2273 277.668 34.9223 277.308 34.6989C276.952 34.4754 276.532 34.3636 276.047 34.3636C275.513 34.3636 275.051 34.4962 274.661 34.7614C274.274 35.0227 273.977 35.3636 273.768 35.7841C273.56 36.2045 273.456 36.6553 273.456 37.1364V37.9091C273.456 38.5682 273.57 39.1269 273.797 39.5852C274.028 40.0398 274.348 40.3864 274.757 40.625C275.166 40.8598 275.642 40.9773 276.183 40.9773C276.536 40.9773 276.854 40.928 277.138 40.8295C277.426 40.7273 277.674 40.5758 277.882 40.375C278.09 40.1705 278.251 39.9167 278.365 39.6136L279.661 39.9773C279.524 40.4167 279.295 40.803 278.973 41.1364C278.651 41.4659 278.253 41.7235 277.78 41.9091C277.306 42.0909 276.774 42.1818 276.183 42.1818ZM288.018 35.2273L286.814 35.5682C286.738 35.3674 286.626 35.1723 286.479 34.983C286.335 34.7898 286.138 34.6307 285.888 34.5057C285.638 34.3807 285.318 34.3182 284.928 34.3182C284.393 34.3182 283.948 34.4413 283.592 34.6875C283.24 34.9299 283.064 35.2386 283.064 35.6136C283.064 35.947 283.185 36.2102 283.428 36.4034C283.67 36.5966 284.049 36.7576 284.564 36.8864L285.859 37.2045C286.64 37.3939 287.221 37.6837 287.604 38.0739C287.986 38.4602 288.178 38.9583 288.178 39.5682C288.178 40.0682 288.034 40.5152 287.746 40.9091C287.462 41.303 287.064 41.6136 286.553 41.8409C286.041 42.0682 285.446 42.1818 284.768 42.1818C283.878 42.1818 283.142 41.9886 282.558 41.6023C281.975 41.2159 281.606 40.6515 281.45 39.9091L282.723 39.5909C282.844 40.0606 283.073 40.4129 283.411 40.6477C283.751 40.8826 284.196 41 284.746 41C285.371 41 285.867 40.8674 286.234 40.6023C286.606 40.3333 286.791 40.0114 286.791 39.6364C286.791 39.3333 286.685 39.0795 286.473 38.875C286.261 38.6667 285.935 38.5114 285.496 38.4091L284.041 38.0682C283.242 37.8788 282.655 37.5852 282.28 37.1875C281.909 36.786 281.723 36.2841 281.723 35.6818C281.723 35.1894 281.861 34.7538 282.138 34.375C282.418 33.9962 282.799 33.6989 283.28 33.483C283.765 33.267 284.314 33.1591 284.928 33.1591C285.791 33.1591 286.469 33.3485 286.962 33.7273C287.458 34.1061 287.81 34.6061 288.018 35.2273ZM291.173 42.0909C290.893 42.0909 290.652 41.9905 290.452 41.7898C290.251 41.589 290.151 41.3485 290.151 41.0682C290.151 40.7879 290.251 40.5473 290.452 40.3466C290.652 40.1458 290.893 40.0455 291.173 40.0455C291.454 40.0455 291.694 40.1458 291.895 40.3466C292.096 40.5473 292.196 40.7879 292.196 41.0682C292.196 41.2538 292.149 41.4242 292.054 41.5795C291.963 41.7348 291.84 41.8598 291.685 41.9545C291.533 42.0455 291.363 42.0909 291.173 42.0909Z" fill="white"/>
</svg>
